<?xml version="1.0" standalone="yes"?>
<svg xmlns="http://www.w3.org/2000/svg" width="512" height="512">
<path style="fill:#ffffff; stroke:none;" d="M0 0L0 512L512 512L512 0L0 0z"/>
<path style="fill:#000000; stroke:none;" d="M325 1C322.948 2.96484 321.806 3.57361 319 4C322.25 5.51346 325.125 6.31021 327.7 9.05862C332.782 14.4845 336.476 23.7671 344 26C341.303 23.5866 339.122 20.8322 336 19L337 17C331.883 12.7543 327.341 7.25519 325 1M28 2C28.0554 12.0045 23.7879 20.1106 23 30C24.9368 26.8118 24.8499 22.7249 25 19L28 20C27.4825 14.2684 30.3718 9.38571 32 4C30.5785 5.78845 30.3026 6.70572 30 9L28 2M311 3C311.452 5.97668 313.194 8.13116 314 11L322 12C318.178 9.78723 315.463 8.75784 315 4L312 6C311.762 4.64206 311.701 4.05154 311 3M300 5C301.139 6.01547 301.612 6.30862 303 7C301.814 8.18628 301.472 8.58374 301 10C305.857 11.167 309.588 13.8175 314 16C310.213 11.7326 305.175 7.3988 300 5M222 6C216.642 8.5748 211.606 6.78107 206 8C209.725 9.00394 214.105 8.92218 218 9C216.466 10.0226 216.598 9.80453 216 11C219.191 13.6589 219.987 13.5162 222 11L223 16C225.587 15.9249 227.541 16.1922 230 17C227.133 14.2737 222.839 11.1004 219 10L223 7L222 6z"/>
<path style="fill:#ffffff; stroke:none;" d="M303 8C303.545 9.63516 303.365 9.45496 305 10C304.455 8.36487 304.635 8.54504 303 8z"/>
<path style="fill:#000000; stroke:none;" d="M106 10C101.402 15.8933 93.993 18.429 92 26C96.2968 20.6271 100.917 15.451 108 14L106 10z"/>
<path style="fill:#ffffff; stroke:none;" d="M218.333 10.6667C218.278 10.7221 218.222 11.7779 218.667 11.3333C218.722 11.2776 218.778 10.2223 218.333 10.6667z"/>
<path style="fill:#000000; stroke:none;" d="M233 10C235.777 17.0327 241.021 24.4341 245 31L247 30C247.983 32.9498 248.487 33.6217 246 33C247.397 34.1561 248.232 34.5517 250 35C250.027 37.5805 250.229 38.1382 252 40C251.228 37.365 251.413 35.6777 252 33C250.805 33.5977 251.023 33.4661 250 35C248.313 30.7289 244.094 27.6383 244 23C242.7 23.6498 243 23.1469 243 25C242.79 23.153 242.806 21.8568 243 20C241.804 20.5977 242.023 20.466 241 22C239.714 17.1742 236.465 13.5097 233 10M279 10C286.217 15.2563 299.172 19.5944 302 29C305.379 29.7866 305.966 32.8929 307 36C307.555 33.5607 306.981 31.3221 308 29C297.505 23.5719 291.159 12.6439 279 10M471 10C473.816 16.8429 475.844 22.4395 476 30C478.658 23.6061 475.686 14.6678 471 10M46 11C42.4266 24.2902 36.6625 36.9817 40 51L38 50L39 56C42.4068 48.8527 39.1581 39.6603 40.7176 32C42.1201 25.1107 48.2284 18.3725 46 11M154 11C152.427 13.1149 151.648 14.4697 151 17C151.685 15.7518 151.749 15.4515 152 14C152.983 17.0806 153.584 20.075 155 23C155.594 21.3082 155.803 19.8007 156 18C154.7 18.6498 155 18.1468 155 20C154.039 16.8795 154.339 14.1326 154 11M188 15L189 18L186 19C188.761 19.9465 191.356 20.6476 194 22C192.523 19.6775 191.106 17.5127 190 15L194 16C191.82 14.8132 190.486 14.7658 188 15M22 15C20.5342 20.0732 18.5502 24.1512 13 25C11.509 41.3939 7.28293 58.1369 3 74C4.01544 72.8607 4.30866 72.3884 5 71C5.6751 73.6589 5.59171 75.3117 5 78L8 77C7.26792 73.2485 7.83993 69.7865 8 66C7.22106 67.769 7.08759 69.0359 7 71C4.38638 64.5391 8.45341 57.692 9 51L12 52C11.4183 45.8867 9.69219 29.9721 17 28L17 25L19 26C19.7264 23.8208 19.4395 24.2197 21 25C21.1608 21.5799 22.9044 18.2851 22 15M255 15C257.585 16.7685 259.884 16.9275 263 17L261 22C263.179 22.7264 262.78 22.4395 262 24C263.44 21.7599 263.637 19.6602 264 17C261.049 16.0659 258.047 15.5739 255 15z"/>
<path style="fill:#ffffff; stroke:none;" d="M335 17L336 18L335 17z"/>
<path style="fill:#000000; stroke:none;" d="M154 29C154 31.325 152.271 32.0362 151 34L155 32L156 37C156.791 34.6927 156.475 33.9352 155 32C159.728 28.3405 164.84 23.9026 170 21C164.494 20.2446 160.1 28.2144 154 29M198 20C197.389 24.0631 195.86 27.3603 194 31C196.458 28.8443 197.359 27.2099 198 24L201 34C202.012 32.3459 202.255 31.8224 204 31C202.494 30.317 201.685 30.1741 200 30C199.926 26.4251 199.692 23.1817 198 20M263 26C263.292 34.1118 264.023 38.8194 268 46L272 44C270.341 43.5936 269.758 43.6914 268 44C266.855 41.5326 264.827 38.7788 264.566 36.0239C264.102 31.109 267.961 32.9063 270 35C269.766 31.4371 267.263 30.5137 264 30C263.826 28.3149 263.683 27.5059 263 26M341 27C348.428 30.9621 351.201 35.7254 350 44C352.385 44 352.336 44.7319 352 47C354.121 47.2277 353.89 47.1505 355 49L353 48C356.043 50.9515 358.984 51.0834 363 50C363.699 57.0262 364.62 63.7765 368 70C368.145 67.3615 366.824 65.5438 366.178 62.9992C365.511 60.3699 365.836 57.648 365.12 55C364.007 50.8853 361.937 47.1453 361 43C360.089 44.3765 359.596 45.4399 359 47C360.457 48.1035 360.897 48.5433 362 50L356 49C356.218 47.3135 356.224 46.6839 356 45L357 44L359 45C357.381 42.704 356.043 40.6116 355 38C354.419 40.604 355.033 43.2914 355 46C350.28 39.0395 352.019 27.8381 341 27z"/>
<path style="fill:#ffffff; stroke:none;" d="M245 29L246 30L245 29z"/>
<path style="fill:#000000; stroke:none;" d="M338 29L335 33C340.532 37.328 344.344 44.055 348 50C348.01 44.417 342.453 39.8069 340 35C342.071 33.6764 342.139 33.4529 342 31C341.727 32.3283 341.784 32.5774 342 34C338.608 33.6066 338.532 32.1138 338 29M22 31C27.0726 40.9158 24.0892 54.3434 23 65C26.2779 60.1162 25.2682 51.7903 26 46C27.4784 46.9856 27.2033 47 29 47C25.3235 41.8657 26.4966 34.9457 22 31M295 31C293.647 31.7124 293.455 31.8151 292 32C295.378 36.7155 299.976 40.3497 303.486 45.0008C309.053 52.3768 314.166 61.8735 321 68C319.993 70.6549 320.008 71.3303 321 74C321.269 72.1776 321.32 70.718 322 69C318.196 62.4379 313.769 57.0475 309.289 50.9962C304.594 44.6537 300.801 38.3438 294 34C294.855 32.4934 294.965 32.5453 295 31M182 38C185.942 36.0295 188.62 35.2922 193 36C192.402 34.8046 192.534 35.0226 191 34L195 34C190.575 31.7429 185.059 34.53 182 38M207 33L210 43C211.195 42.4023 210.977 42.5339 212 41C211.952 42.9483 211.696 44.1764 211 46C213.297 46.6735 213.774 46.9653 215 49C216.111 44.82 212.907 39.6964 213 35C212.221 36.769 212.088 38.0359 212 40C209.882 37.8953 208.666 35.4545 207 33M150 35C148.242 39.0619 147.616 44.5101 143 46L143 52C143.911 50.6234 144.404 49.5602 145 48L147 49L148 48C147.202 44.8563 148.822 41.3487 149 38C149.986 39.4785 150 39.2032 150 41C150.852 38.8179 150.925 37.1632 150 35M369 35C368.11 36.7448 367.547 38.125 367 40C368.195 39.4023 367.977 39.5338 369 38C370.147 41.441 369.475 42.495 372 43C370.521 43.9857 370.797 44 369 44C371.052 44.8742 372.747 44.9528 375 45C372.479 41.8166 370.751 38.6341 369 35z"/>
<path style="fill:#ffffff; stroke:none;" d="M213 44L214 45L213 44M355 46L356 47L355 46M10.3333 48.6667C10.2777 48.7224 10.2223 49.7777 10.6667 49.3333C10.7222 49.2779 10.7778 48.2222 10.3333 48.6667M355 49L356 50L355 49z"/>
<path style="fill:#000000; stroke:none;" d="M95 50C94.7103 54.181 92.8785 58.2654 91 62C94.0665 62.9636 94.9012 65.0577 96 68C96.6936 65.0119 94.865 63.3408 94.4128 60.4244C93.5136 54.6245 99.1086 51.4891 104 52C101.138 49.9331 98.2724 50.9416 95 50M37 52C36.4174 58.3517 35.5531 64.7219 37 71C38.2761 66.1951 38.9211 56.6517 37 52M233 54C236.084 59.3009 238.791 64.2798 241 70C241.755 63.9958 237.495 57.6092 233 54M199 64C208.035 57.232 212.01 60.8653 216.332 69.8302C221.13 79.7834 223.08 90.065 224 101C225.688 96.7764 224.63 92.2925 223.59 88C221.511 79.424 219.336 70.6548 214.633 63.0448C210.802 56.8445 202.246 57.9698 199 64M104 61C97.2318 70.2782 95.1891 90.0093 110 93L111 100C112.457 98.8966 112.897 98.4566 114 97C110.962 96.0171 111.992 94.362 109.833 92.5C108.105 91.009 105.713 90.7678 104 89C100.828 85.7257 100.357 81.2897 100 77C99.8532 75.2379 100.064 64.9032 102 68C103.069 65.7656 104.03 63.4598 104 61M205 63C205 66.0745 199.57 65.0946 197 67.3333C192.972 70.8415 189.423 76.648 189 82C192.487 76.7566 196.072 65.9439 203.998 66.4074C206.435 66.5499 208.816 68.0317 211 69C209.257 66.6808 207.581 64.2836 205 63M370 66C370.739 68.5674 371.682 70.6729 373 73C371.365 72.4549 371.545 72.6352 371 71C370.913 75.0544 374.39 76.4413 378 77C376.352 76.0759 374.825 75.5506 373 75C373.222 71.3041 372.348 68.86 370 66M12 67C8.31122 79.4796 11 95.9894 11 109C12.7687 104.785 12 99.5355 12 95C12 86.0139 13.3741 75.8047 12 67M323 67C323.178 74.3432 327.676 76.0325 330.799 82.0038C332.327 84.9269 331.509 87.9255 332.228 91C333.329 95.7056 335.515 98.9927 335 104C338.353 99.1807 334.24 92.7336 332 88L335 87C331.664 79.6711 326.29 74.2416 323 67M41 68C41.0683 76.1451 43.2528 84.352 44.409 92.4244C44.9117 95.9346 44.1937 99.5614 44.9907 103C46.2319 108.354 50.1476 112.62 51.1373 118C51.8093 121.652 50.9307 125.323 51.4329 129C52.3895 136.005 58.8293 145.592 54 152C58.2397 152.699 56.8938 145.707 56.3935 143C54.35 131.942 51.0515 121.355 51 110C47.2487 109.513 45.9813 103.462 45.8611 100C45.5718 91.6685 44.8263 83.0786 42.6944 75C42.0515 72.5638 42.2043 70.0902 41 68M181 72L184 74C181.864 74.9641 180.061 76.1683 178 75C177.642 77.8688 178.886 80.3235 180 83C180.296 80.71 179.8 79.1889 179 77C181.146 76.4964 182.979 75.8806 185 75C184.93 73.0481 184.646 73.06 186 72C184.154 71.5325 182.932 71.6987 181 72M378 71C379.93 79.1071 378.401 87.9972 380.495 96C384.035 109.524 391.701 122.313 394.61 136C397.522 149.699 396.036 165.172 395.09 179C394.723 184.35 395.84 189.724 395 195C398.086 190.763 395.682 184.13 396.17 179C397.767 162.208 395.205 145.746 396 129C395.315 130.248 395.251 130.548 395 132C391.522 125.373 389.863 118.032 387.456 111C385.561 105.465 382.361 99.7268 381.274 94C379.957 87.0614 382.374 76.7732 378 71M22 85C22.0062 94.411 24 103.473 24 113C27.0575 105.714 24.9794 92.0845 22 85M190 87C190.454 91.6443 188.276 95.4781 188.39 100C188.562 106.862 191.41 113.239 192 120C193.854 115.239 190.847 109.875 190.135 105C189.318 99.4054 190.733 95.3527 192 90L196 92C194.201 89.9262 192.296 88.514 190 87M227 90C227.458 98.358 234.899 102.419 235 111C238.099 103.595 230.16 96.3542 227 90M96 91C93.271 91.8102 90.8495 91.9792 88 92C90.56 93.1184 94.1825 93.1287 95.358 96.1481C97.275 101.072 92.4317 107.8 99 110C97.7516 109.315 97.4516 109.251 96 109C97.0547 102.914 95.5305 93.1684 104 93C100.984 91.3996 98.9848 92.564 96 94C96.2159 92.5776 96.2735 92.3282 96 91M184 98C181.494 101.816 179.173 106.595 178 111C179.857 108.76 181.189 106.863 184 106L184 98M226 99C226.613 104.229 226.047 111.14 227.894 116.001C229.343 119.81 232.9 122.226 234.448 125.961C235.818 129.268 235.133 132.661 237.427 135.699C240.678 140.005 244.1 138.334 248.072 140.488C252.491 142.884 255.589 151.377 255 156C261.512 159.119 264.376 165.314 268.684 170.715C275.597 179.382 287.616 190.511 299 192C295.125 189.655 290.696 188.162 287 185.505C276.326 177.833 268.788 167.814 260.594 157.83C256.021 152.259 254.314 141.289 247 139C246.788 132.462 243.507 129.186 238 126C241.572 130.434 245.544 132.946 246 139C237.417 137.69 238.204 131.449 235.475 125C234.033 121.59 230.899 119.326 229.322 116C227.163 111.448 227.614 103.703 229 99L226 99z"/>
<path style="fill:#ffffff; stroke:none;" d="M182.333 102.667C182.278 102.722 182.222 103.778 182.667 103.333C182.722 103.278 182.778 102.222 182.333 102.667z"/>
<path style="fill:#000000; stroke:none;" d="M82 105C84.2434 110.265 84.4085 114.492 83 120C84.5819 117.943 84.8256 116.612 85 114L89 116C86.0364 111.885 84.7479 109.153 85 104L82 105M339 104C340.488 113.572 346.845 121.54 349 131C350.768 126.123 347.289 121.265 345.169 117C343.038 112.715 341.578 108.026 339 104M76 108C74.3432 114.026 78.4455 124.694 69 125C70.2483 125.685 70.5485 125.749 72 126L72 130C75.4547 124.453 76.5011 119.224 78 113C74.6935 113 76.8526 110.084 76 108M174 113C169.519 120.778 172.369 129.567 170 138C171.686 138.218 172.316 138.224 174 138C171.316 135.932 172.695 134.089 172.917 131C173.181 127.322 172.142 123.739 172.583 120C172.874 117.541 174.253 115.245 174 113M332 115C332.995 122.702 336.157 131.678 342 137C338.734 130.163 333.737 123.818 335 116C333.7 116.65 334 116.147 334 118L332 115M124 119L120 131L123 129L123 135C124.473 131.365 124.569 122.962 124 119M194 119C194.905 123.858 196.234 129.061 196 134C197.195 133.402 196.977 133.534 198 132C198.928 134.967 199.745 136.868 202 139C200.345 135.367 198.176 131.764 196.873 128C195.772 124.816 195.935 121.828 194 119M80 121L79 125L78 123C76.8565 125.873 77.0118 128.482 75 131C74.431 134.142 73.0891 136.047 70 137L72 141C73.7341 137.691 75.6712 134.485 77 131L79 136C79.5804 131.427 78.5774 127.683 80 123L82 126C82.0356 123.762 81.4088 122.758 80 121M345 127C349.639 140.738 353.297 153.415 361 166C361.016 158.288 353.039 149.357 350.44 142C348.573 136.716 348.913 131.353 345 127M118 128C113.455 137.554 107.091 146.104 107 157C108.516 153.487 108.705 149.58 110.313 146C112.73 140.619 118.7 134.061 118 128M328 130C328.326 133.049 328.178 135.944 328 139C326.42 138.316 326.223 138.195 325 137C324.535 139.838 329.668 141.991 331 145C332.063 143.031 332.532 141.202 333 139L330 141C329.25 137.171 330.173 133.323 328 130M250 132C253.722 139.599 259.002 145.42 264.181 152C274.451 165.049 285.589 176.223 298.424 186.907C302.924 190.653 308.852 191.956 313 196C319.246 196.652 322.921 203.055 323 209C326.626 203.012 318.587 197.102 316 192C314.984 193.139 314.691 193.612 314 195C310.337 191.429 305.318 190.261 301.17 187.286C295.907 183.513 291.766 178.473 286.961 174.205C283.365 171.013 279.419 168.445 276.015 164.996C269.332 158.226 263.271 149.625 257.552 142C254.964 138.549 253.246 134.912 250 132M121 140L124 139C124.255 144.999 122.412 150.557 120 156C125.286 151.033 124.843 143.682 125 137C122.608 137.478 122.087 137.826 121 140M165 137C163.343 150.478 168.698 164.172 166 178C168.393 174.792 167.272 171.823 167.514 168C168.121 158.4 168.293 146.058 165 137M203 139C203.367 143.447 207.426 149.206 206 153C207.659 153.406 208.242 153.309 210 153C210.041 155.427 210.551 157.6 211 160C212.857 154.603 208.251 150.481 205.897 146.001C204.709 143.739 204.203 141.242 203 139M74 144L72 151C73.0826 152.838 73.1952 153.86 73 156C74.1952 157.223 74.3164 157.42 75 159C75.9779 155.679 75.4534 151.586 76 148C75.3153 149.248 75.2512 149.548 75 151L74 144M59 146C59 153.055 58.7077 160.039 60 167C61.5061 162.103 61.0008 150.768 59 146M197 150L199 154C197.365 153.455 197.545 153.635 197 152C195.577 155.627 196.328 160.103 196 164C196.685 162.752 196.749 162.451 197 161C198.479 161.986 198.203 162 200 162C198.58 159.694 197.671 157.624 197 155C198.797 155 198.521 154.986 200 154C199.064 152.051 198.608 151.45 197 150M362 151C364.502 161.509 364 174.187 364 185C366.878 178.14 364.012 169.248 364 162C363.993 157.996 364.48 154.273 362 151M156 153C156.169 157.336 154.743 161.078 153 165L157 165L155 163C155 162.415 157.12 156.466 158 155L159 156C157.897 154.543 157.457 154.103 156 153M119 157C119.005 164.31 113.25 170.743 112 178C115.047 173.411 121.775 162.094 119 157M52 159C50.4907 164.758 47.3219 170.047 47 176C49.3979 171.169 53.2887 164.458 52 159M151 163C150.131 167.466 148.339 171.601 147.389 176C145.998 182.44 146.362 188.318 141 193C142.054 197.376 142.413 201.762 144 206L140 206C140.302 210.69 140.089 215.426 139 220C137.114 219.057 134.232 219.259 133 217C132.464 216.017 133 213.149 133 212C133 206.033 132.374 201.532 136 197L137 198C134.966 189.356 139.35 179.289 142 171C138.973 174.465 138.707 178.692 137.431 183C135.072 190.959 132.016 199.687 132 208C131.989 213.684 131.305 218.932 138 220C138.04 222.643 138.099 224.609 137 227C138.987 230.504 139.355 234.61 141.525 237.996C146.061 245.076 157.793 251.765 166 253C167.484 260.213 175.109 260.088 179 255C176.807 256.204 174.797 257.277 173 259C170.673 257.123 168.827 255.941 166 255C169.071 252.838 170.268 252.284 173 255L176 255C172.923 251.082 172.537 249.436 175 245C176.186 246.186 176.584 246.528 178 247L177 245C179.173 247.598 180.188 250.879 183.109 252.867C188.918 256.818 195.452 255.563 202 255.571C205.029 255.574 207.975 256.208 211 255.66C213.694 255.172 216.221 253.559 219 253.603C224.891 253.697 228.77 260.166 234 255C230.087 256.258 227.75 255.487 224 254L234 253C229.088 251.683 224.012 252.535 219 252L221 250C219.557 246.545 212.139 239.393 215 238L211 235C209.989 240.144 215.686 243.744 219 247L218 248C213.26 243.97 206.489 237.945 200 239C201.51 239.25 202.435 239.18 204 239C204.594 242.833 210.912 242.714 212 247L215 246C214.974 248.517 215.396 248.522 218 249C215.274 251.027 209.899 254.942 206.232 254.123C201.392 253.041 204.167 245.383 206 243C204.63 242.418 203.494 242.203 202 242C203.72 249.94 198.405 258.752 191 251C186.038 257.675 180.819 248.33 179 244C181.167 243.435 181.991 243.201 184 244L187 236C185.334 237.255 183.901 238.159 182 239L182 242L178 241C178.598 242.195 178.466 241.977 180 243L178 244L176 243C172.562 244.91 170.038 249.468 167 252L167 251C164.012 251.664 162.874 251.724 160 250L161 249L158 250L158 247C144.476 244.343 137.295 232.191 140.304 219C141.347 214.429 139.989 208.154 146.019 207.09C151.271 206.163 156.754 207.857 162 207.985C171.816 208.226 183.605 205.867 193 209.268C206.028 213.983 216.858 223.998 231 224C227.79 222.653 224.271 223.087 221 221.674C208.188 216.14 197.604 206.974 183 205.676C178.444 205.271 173.62 206.943 169 206.996C163.578 207.059 158.383 206.346 153 206.035C149.759 205.848 146.255 205.985 144.434 202.772C141.53 197.647 144.538 192.823 146.29 188C147.729 184.04 147.547 179.992 148.633 176C149.815 171.662 152.386 167.521 151 163M119 168C114.413 174.732 109.056 185.924 108 194C109.938 190.8 111.283 187.644 114 185C114.291 178.916 118.483 173.86 119 168M45 174C43.2812 181.219 44.2887 188.689 43 196C43.9114 194.623 44.4038 193.56 45 192C54.5606 197.111 56.4955 212.548 59.8711 222C61.5306 226.647 63.7638 229.918 64 235C66.1538 229.717 62.6013 225.845 60.8711 221C57.9348 212.778 55.9874 203.789 51.7006 196.043C50.1419 193.227 46.8528 191.724 45.6034 188.791C43.6376 184.175 46.1226 178.673 45 174M125 174C119.031 182.506 115.225 190.772 110.501 200C107.275 206.301 104.17 211.753 104 219C101.218 218.188 100.373 217.547 99 215C97.7278 219.41 99.4206 223.587 93 223C93.2076 224.661 93.4954 224.54 92 225L101 228C99.8607 226.985 99.3884 226.691 98 226C99.588 222.503 102.793 220.883 104.444 217.701C105.98 214.739 106.402 211.09 107.774 208C110.047 202.88 113.234 198.185 115.407 193C117.359 188.341 118.138 182.267 124 182L125 174M132 174C130.571 178.834 130.926 184.014 130 189C131.819 187.636 131.031 187.508 133 188C131.873 183.265 132.728 178.665 132 174M94 178C92.6459 187.434 91.4329 196.269 92 206C93.0531 204.947 93.2379 203.379 93 201C92.7529 198.529 91.682 186.863 94 183L95 184C95.0233 181.597 95.1144 180.075 94 178M400 195C400.749 199.021 401.297 202.908 401 207C402.478 207.986 402.203 208 404 208C403.154 211.761 402.509 217.384 404.19 221C405.718 224.289 408.767 226.604 410.142 230C411.654 233.737 411.139 238.118 412.326 242C413.672 246.407 416.795 249.796 418.505 254C420.744 259.502 420.499 267.028 427 269C427 279.107 426.956 289.973 428.13 300C428.576 303.809 430.578 307.147 430.906 311C432 323.846 428.323 335.88 421 346C431.436 339.014 433.369 320.838 431.812 309C431.356 305.533 429.536 302.474 429.13 299C427.848 288.055 429.029 276.927 427 266L424 268C422.607 262.784 421.384 256.872 419.066 252C417.427 248.557 414.947 245.633 413.649 242C412.15 237.807 412.789 233.068 411.142 229C409.774 225.62 406.667 223.333 405.265 220C403.672 216.215 404.415 210.023 405 206L402 207C402.467 202.811 402.423 198.542 400 195M370 199C372.116 207.887 371.924 218.846 372 228C373.532 224.342 372.536 220.846 372.17 217C371.621 211.237 373.638 203.802 370 199M96 200L96 218C97.8686 213.462 97.9034 204.536 96 200M151 200C157.687 202.806 167.767 201 175 201C168.313 198.194 158.233 200 151 200M36 202C35.526 213.04 33.3061 225.015 35.6335 236C36.971 242.313 41.3829 247.695 42.7014 254C44.5662 262.918 44.4694 271.143 47.4275 280C49.9535 287.564 52.721 294.995 56.5363 302C58.058 304.794 60.4447 308.95 59 312L62 314C58.7261 318.526 56.5508 327.468 62 331C59.2951 326.127 60.8727 322.798 63 318C59.1798 318 65.5755 310.492 67 309C65.3272 308.325 63.8141 308.184 62 308C62.5977 309.195 62.4661 308.977 64 310C62.2032 310 62.4785 310.014 61 311C59.3384 304.348 55.8733 299.281 53.3781 293C47.4206 278.003 43.0329 263.317 44 247L41 249C40.4223 242.624 36.5463 237.475 36.0895 231C35.6528 224.81 35.6659 218.191 36.0895 212C36.3309 208.472 37.3649 205.347 36 202M187 202C192.209 205.273 197.315 204.119 203 205.299C209.308 206.608 214.333 208.945 221 209C210.789 204.595 197.984 203.615 187 202M331 212L332 215C336.443 212.608 338.557 212.608 343 215C338.547 205.7 353.155 202.196 359.955 205.553C363.507 207.306 363.066 211.7 366 214C365.065 210.634 364.057 208.027 366 205C360.337 203 350.605 202.655 345.004 205.09C339.732 207.381 337.084 211.477 331 212z"/>
<path style="fill:#ffffff; stroke:none;" d="M181 206C182.248 206.685 182.548 206.749 184 207C182.752 206.315 182.452 206.251 181 206z"/>
<path style="fill:#000000; stroke:none;" d="M305 213C309.673 216.462 313.596 212.233 318 210C313.706 209.297 309.251 212.263 305 213M217 211C218.588 212.086 219.26 211.831 219 214C220.661 213.792 220.54 213.505 221 215L224 214L225 217L227 216C229.473 220.488 234.222 220.622 239 221C236.201 219.512 232.961 219.492 230.17 218.027C226.318 216.006 222.423 212.693 219 210L217 211z"/>
<path style="fill:#ffffff; stroke:none;" d="M309 214C310.58 213.316 310.777 213.195 312 212C309.908 212.406 309.98 212.217 309 214z"/>
<path style="fill:#000000; stroke:none;" d="M429 212C427.805 214.166 427.309 215.553 427 218C425.521 217.014 425.797 217 424 217C426.359 220.774 424.517 229.954 432 227C430.49 226.75 429.565 226.82 428 227C426.185 220.97 428.776 217.749 429 212M437 219C439.283 220.222 441.428 220.652 444 221C443.358 223.361 443.116 225.554 443 228C443.986 226.724 444.661 220.173 446 223C446.103 218.776 440.243 219.201 437 219M47 220C47.4347 226.407 46.5017 232.642 46 239C48.5083 234.282 49.6867 224.704 47 220z"/>
<path style="fill:#ffffff; stroke:none;" d="M444 220L445 221L444 220z"/>
<path style="fill:#000000; stroke:none;" d="M326 222L327 225C329.088 224.139 335.037 225.838 331.534 227.664C329.961 228.483 327.667 227.648 326 227.606C321.698 227.498 317.323 228 313 228C314.506 228.683 315.315 228.826 317 229L315 233C317.241 231.387 319.238 229.593 322.039 229.098C327.426 228.146 332.956 231.714 335 225C341.816 226.021 347.987 228.699 355 229C346.926 225.12 334.952 222.891 326 222M272 237C273.325 235.084 273.554 233.358 276 233C276.523 228.999 278.434 226.768 282 225C276.38 223.855 272.698 232.377 272 237M374 226C374.82 232.349 375.807 237.58 375 244C378.139 238.761 377.076 231.102 374 226M90 227C89.7761 228.684 89.7817 229.313 90 231L88 230C89.4413 231.079 89.1682 230.969 91 231C91 238.424 89.1418 245.692 90 253L85 251C86.2228 252.195 86.42 252.316 88 253L87 259L91 253L91 260C92.3688 256.707 91.5102 253.505 91.5694 250C91.6936 242.661 93.6355 233.754 90 227M254 230C256.24 233.298 258.919 235.879 259 240C260.888 238.44 261.928 237.196 263 235L260 237C258.871 234.279 257.568 231.889 257 229L254 230M224 230C219.436 232.196 214.751 231.596 210 233C214.904 233.765 220.535 233.149 225 231L224 230M308 230C307.031 233.34 307.183 236.541 307 240L303 237C304.584 240.297 304.548 241.693 303 245C305.993 245 307.007 247.898 304 249C313.9 253.195 326.366 255.226 337 256L335 253C341.281 252.804 343.584 253.536 345 260L348 247C353.956 247.638 359.135 244.482 365 245C360.28 241.731 356.081 246.871 351 245.215C346.569 243.77 343.889 239.213 340 236.854C335.934 234.388 330.595 233.891 326 233L330 232C328.059 231.049 326.102 230.561 324 230C325.218 232.118 325.867 232.845 328 234C327.465 238.858 328.769 244.263 325.606 248.517C321.594 253.912 309.308 251.045 306.8 245.112C305.72 242.556 307.699 240.43 308.163 237.985C308.639 235.474 308.417 232.487 308 230M208 232L207 236C197.455 232.521 186.673 232.802 177 235.598C171.809 237.098 167.491 239.548 162 240C164.859 241.127 167.937 240.656 171 241C175.51 236.066 183.611 234.232 190 236L189 234C195.822 235.624 202.235 235.716 209 238L208 232M372 232C372 243.693 374.727 254.413 375.83 266C377.048 278.793 376 292.149 376 305C378.292 299.538 377 291.887 377 286C377 271.803 375.977 258.923 373.375 245C372.564 240.66 373.721 236.101 372 232M66 233C71.075 237.747 76.4115 238.952 83 237C80.5557 236.449 78.2043 237.327 75.7145 236.887C72.3169 236.287 69.2207 234.17 66 233M443 233C441.849 235.019 440.985 235.723 439 237L443 238C442.194 240.991 442.074 243.901 442 247C443.893 242.993 444.51 237.187 443 233z"/>
<path style="fill:#ffffff; stroke:none;" d="M328 235C329.898 242.995 326.528 246.906 324 254C331.688 255.426 337.765 250.511 345 253C345.867 250.905 347.279 248.353 346.938 245.998C345.762 237.874 334.632 235.289 328 235z"/>
<path style="fill:#000000; stroke:none;" d="M313 237C314.648 237.924 316.175 238.449 318 239C315.439 239.867 314.605 239.813 312 239L311 245C313.516 243.242 314.94 242.7 318 243C317.946 241.444 318.023 239.938 319 242C319.158 239.608 318.177 238.153 317 236L313 237M188 241L189 247C192.275 246.686 194.101 247.459 197 249C196.445 247.196 196.166 245.873 196 244C193.408 244.508 191.592 244.508 189 244C191.1 243.115 191.74 242.965 194 243C192.01 241.501 190.482 241.267 188 241M79 243C77.2664 245.658 75.3557 248.143 74 251C76.3336 250.215 77.5993 250.387 80 251C79.7924 249.339 79.5046 249.46 81 249L78 247C79.9852 245.723 80.8495 245.019 82 243L79 245C80.1501 243.275 80.5539 243.777 79 243z"/>
<path style="fill:#ffffff; stroke:none;" d="M176 244L177 245L176 244M90 246L90 249C90.6961 247.446 90.6961 247.554 90 246M349 246L350 247L349 246M215 247L216 248L215 247M77 248L78 249L77 248z"/>
<path style="fill:#000000; stroke:none;" d="M239 248C238.707 251.111 237.294 253.199 236 256C238.016 255.114 238.107 255.055 239 257C239.782 255.021 239.823 253.136 240 251L244 253C242.451 250.864 241.136 249.549 239 248z"/>
<path style="fill:#ffffff; stroke:none;" d="M219 249L220 250L219 249z"/>
<path style="fill:#000000; stroke:none;" d="M299 249C299 255.931 287.857 249.261 286 255C288.266 253.856 289.477 253.694 292 254C290.814 255.186 290.472 255.584 290 257C292.384 256.711 292.387 257.09 292 255C297.169 253.255 301.503 252.016 307 252L299 249M392 249C391.869 250.641 391.631 251.456 391 253C395.225 253.188 396.686 255.66 399 259C399.043 257.216 398.355 255.575 399 254L392 249M283 250C284.109 264.054 281.798 279.225 284.468 293C285.391 297.76 288.316 301.548 290 306C291.113 301.176 286.071 296.025 285.3 291C283.95 282.197 285.001 272.884 285 264C285 259.188 285.308 254.341 283 250z"/>
<path style="fill:#ffffff; stroke:none;" d="M217 251L218 252L217 251z"/>
<path style="fill:#000000; stroke:none;" d="M81 252C80.2618 257.76 83.0121 263.899 83 270C84.5681 266.297 84.7576 261.919 86 258L83 259L84 257C80.6892 257 82.27 253.996 81 252z"/>
<path style="fill:#ffffff; stroke:none;" d="M166 252L167 253L166 252M201.667 253.333C201.222 253.778 202.278 253.722 202.333 253.667C202.778 253.222 201.722 253.278 201.667 253.333M210 254C211.846 254.468 213.069 254.301 215 254C213.057 253.378 212.051 253.564 210 254z"/>
<path style="fill:#000000; stroke:none;" d="M300 254C301.067 254.599 301.742 254.753 303 255L299 257C300.139 258.016 300.612 258.309 302 259C302 255.306 307.876 255.082 311 255C307.383 253.262 303.852 252.941 300 254M70 254C71.2559 262.156 69.7874 266.591 61 266C69.5922 270.559 74.9506 261.089 70 254z"/>
<path style="fill:#ffffff; stroke:none;" d="M189 254C190.248 254.685 190.548 254.749 192 255C190.752 254.315 190.452 254.251 189 254M303 254L304 255L303 254M305 254L306 255L305 254z"/>
<path style="fill:#000000; stroke:none;" d="M182 256L181 261C183.317 261.96 184.505 262.183 187 262L186 264C190.616 263.484 195.344 264 200 264C194.925 261.87 187.571 261.551 182 261C182.592 258.845 182.774 258.044 182 256M236 257C237.261 259.335 240.118 265.585 235 264C234.521 265.498 234.6 265.35 235 267C236.797 267 236.521 266.986 238 266L238 269C241.008 264.641 239.933 260.278 236 257z"/>
<path style="fill:#ffffff; stroke:none;" d="M174 258L175 259L174 258z"/>
<path style="fill:#000000; stroke:none;" d="M346 261C343.244 264.332 339.929 268.015 336 269.98C327.653 274.155 316.83 271.006 308 271C316.369 274.52 332.648 274.725 339.996 268.941C342.694 266.818 345.772 264.517 346 261M88 264C88.6976 265.567 88.8739 266.286 89 268C91.6413 268 92 273.309 92 276C92 283.83 91 291.945 91 300C92.455 296.532 91.9152 292.728 92.0355 289C92.1848 284.374 93.0571 279.618 92.7917 275C92.5585 270.943 91.1412 267.044 91 263L88 264M250 263C250.209 268.239 246.563 269.943 244.2 274.174C242.532 277.16 242.002 280.756 241 284C243.528 281.285 243.445 278.204 245.228 275.084C247.595 270.943 253.414 268 250 263M290 264L289 268C289.685 266.752 289.749 266.452 290 265C293.197 272.151 301.474 276.6 303 284C303.955 281.29 303.097 278.838 303 276C296.019 274.949 294.137 268.79 290 264M434 266L434 269C440.816 267.377 447.144 268.441 454 268.91C463.609 269.568 473.435 269.038 483 268.325C486.801 268.041 490.208 268.824 494 268C487.751 266.316 481.343 267.83 475 267.985C461.9 268.306 446.762 269.038 434 266M222 269C222 271.803 214.91 272.065 212 272.833C200.25 275.934 188.169 275 176 275C179.699 276.552 184.017 276 188 276C193.883 276 200.181 276.626 206 275.675C212.893 274.549 218.866 271.646 226 272C224.607 270.566 223.767 269.955 222 269M395 270C395.345 274.081 396.149 277.877 396 282C396.683 280.494 396.826 279.685 397 278C398.186 279.186 398.528 279.584 399 281C399.223 277.482 396.72 273.138 395 270M378 278C379.11 283.981 378.278 289.042 378.129 295C377.911 303.682 378.374 312.289 378 321C381.793 313.107 379.035 303.393 379.259 295C379.413 289.239 381.492 283.111 378 278M306 280C306.506 282.376 307.031 284.573 307 287C310.277 288.028 311.654 290.647 312 294C314.096 289.66 308.754 283.503 306 280M239 281C237.794 283.046 236.752 284.41 235 286C235.724 289.04 235.974 291.878 236 295C237.467 291.511 239.36 284.644 239 281M396 283C395.116 286.498 395.922 289.442 395.921 293C395.92 297.597 394.921 301.413 396 306C397.664 299.183 397.499 289.906 396 283M288 287L292 298C298.926 304.064 307.683 317.433 302.543 326.945C300.345 331.013 295.553 331.802 292.594 335.133C289.097 339.072 286.237 344.466 281 346.397C271.22 350.003 253.439 345.459 245 340.44C239.2 336.99 229.055 331.818 228.533 324C228.128 317.935 235.151 315.281 237 310L242 312L239 307C235.151 311.088 227.583 317.147 227.283 323C226.976 328.993 232.711 334.122 237.09 337.447C247.766 345.555 267.569 351.049 281 347.682C287.799 345.977 290.302 338.612 295.209 334.509C297.748 332.386 301.035 331.728 302.991 328.867C309.518 319.315 299.658 309.567 300 300L297 302C295.237 297.979 291.088 294.034 294 290C292.007 289.301 291.847 290.006 291 292C290.084 290.168 289.248 288.603 288 287M167 291L165 294C167.245 295.122 165.782 297.03 164 300L163 299L164 302C166.637 302.345 166.661 303.414 167 306C167.841 303.455 166.914 301.646 166.819 299.003C166.715 296.127 168.067 293.744 167 291M264 291C264.849 293.546 265.49 294.516 264 297L263 296C262.869 297.641 262.631 298.456 262 300C265.69 300.677 269.267 300.794 273 301C270.293 299.241 267.178 299.631 264 299C265.458 296.383 266.226 293.895 267 291L264 291M105 296C104.356 298.106 104.094 299.795 104 302C104.779 300.231 104.912 298.964 105 297C106.888 300.546 108.317 304.034 109 308C110.484 303.721 107.997 299.089 105 296z"/>
<path style="fill:#ffffff; stroke:none;" d="M293 297L294 298L293 297z"/>
<path style="fill:#000000; stroke:none;" d="M91 302C91 309.881 90.2609 318.179 91.2894 326C92.5329 335.457 95.7833 344.936 98.4591 354C101.452 364.137 103.739 374.645 109.174 383.985C115.137 394.234 123.517 403.362 131.439 412.09C133.616 414.488 139.467 418.763 139 422C148.344 426.833 153.619 435.629 162.001 441.442C165.472 443.85 169.158 443.713 173 445.017C176.133 446.081 178.847 447.965 182 449C180.256 447.365 178.745 446.262 178 444C173.643 444.151 170.657 442.172 167 440C167.472 441.416 167.814 441.814 169 443C164.836 442.011 162.142 439.857 159 437L166 440C163.397 437.274 160.843 437.346 157.835 435.554C155.478 434.149 154.06 431.23 151.946 429.454C146.192 424.622 137.769 419.751 136 412L133 413C129.217 405.908 122.453 400.277 117.644 393.83C110.304 383.99 104.605 372.781 100.988 361C97.45 349.473 93.382 336.07 92.1705 324C91.4727 317.047 93.7205 308.483 91 302M169 306C170.944 311.333 169.168 320.264 172.603 324.517C176.409 329.229 183.706 327.74 189 329C188.792 327.339 188.505 327.46 190 327C187.554 325.555 182.451 327.493 179 327C177.125 326.732 175.207 326.12 177 325C175.231 324.221 173.964 324.088 172 324C172 317.968 173.384 310.678 169 306M292 308C292.702 310.44 293.12 312.465 293 315C294.195 314.402 293.977 314.534 295 313C295.205 315.739 295.38 318.315 296 321C296.914 317.575 296.723 313.593 297 310L295 313C294.964 310.921 294.945 310.724 296 309C294.63 308.418 293.493 308.203 292 308M376 309C376 324.679 369.705 336.598 364.648 351C363.396 354.567 363.219 358.395 362.103 362C358.376 374.029 353.312 385.957 345.586 396C341.946 400.73 337.165 406.315 332.64 410.2C326.866 415.157 318.186 419.275 316 427C312.526 427.577 311.577 428.526 311 432C302.276 434.707 299.023 444.806 299 453C300.525 449.399 300.203 445.504 302.343 442.015C305.358 437.098 311.055 433.866 312 428C314.363 428.308 315.925 428.83 318 430L319 429C315.712 421.816 329.673 412.706 336 412L336 407C337.686 407.218 338.316 407.224 340 407C339.223 405.446 339.725 405.85 338 407C340.002 404.787 341.023 404.259 344 404C343.374 400.783 344.872 399.409 347 397L346 401C348.033 398.296 348.055 394.93 349.79 391.961C354.986 383.069 360.465 374.431 362 364L363 368C364.549 364.009 363.858 359.256 364.822 355C365.918 350.159 368.451 345.72 370 341C370.224 342.684 370.218 343.313 370 345C372.156 342.031 371.818 338.547 372.644 335C374.554 326.805 379.536 317.427 376 309M67 310L68 317C75.5211 316.828 80.2494 320.623 88 318L88 315L85 316C85.6498 317.3 85.1468 317 87 317C80.0742 319.325 77.4039 317.207 72 313C72.472 314.416 72.8137 314.814 74 316C70.9193 314.53 69.167 312.608 67 310z"/>
<path style="fill:#ffffff; stroke:none;" d="M62 313C63.58 312.316 63.7772 312.195 65 311C62.9076 311.406 62.9802 311.217 62 313M68 314L69 315L68 314z"/>
<path style="fill:#000000; stroke:none;" d="M280 316C279.622 318.551 279.012 320.627 278 323L276 319L272 321C272.598 322.195 272.466 321.977 274 323C272.566 324.393 271.955 325.233 271 327C274.657 324.126 277.391 322.627 279 328C280.323 324.698 281.196 319.349 280 316M56 318C55.9473 324.362 53.231 331.441 58.2284 336.56C65.3893 343.896 82.5387 347.096 83 333C81.8074 335.531 81.2783 338.112 78.8519 339.852C71.9793 344.779 60.8181 339.836 57.1829 332.91C54.7427 328.262 58.0263 322.84 56 318z"/>
<path style="fill:#ffffff; stroke:none;" d="M60 320L59 322C60.2628 321.029 60.3919 321.306 60 320M275 320L276 321L275 320z"/>
<path style="fill:#000000; stroke:none;" d="M396 321C394.648 325.43 392.642 328.219 390 332C391.452 331.749 391.752 331.685 393 331C395.945 327.252 399.157 331.036 401 334C401.293 330.503 399.165 328.975 396 328C396.369 325.524 396.583 323.429 396 321M199 350L200 347L197 348C201.1 339.231 214.161 330.05 224 332C217.502 326.935 207.026 334.825 201.835 339.479C198.202 342.737 195.059 345.958 199 350M245 335C249.956 337.387 255.538 338.273 261 338C256.428 336.122 249.978 335.218 245 335M412 338C411.088 341.307 411.807 344.627 410.933 347.91C409.588 352.964 406.359 356.458 406.104 362C405.649 371.892 408.998 381.339 409.896 391C410.853 401.298 410.384 411.691 411.09 422C411.966 434.795 413.052 448.16 411.83 461C411.445 465.053 411.618 470.227 410.076 473.999C408.823 477.066 406.403 479.412 404.833 482.285C403.522 484.684 403.223 487.557 401.441 489.701C400.004 491.431 397.584 492.187 396.603 494.299C394.504 498.816 395.133 506.258 396 511C397.631 505.764 396.999 498.571 397 493C403.178 492.035 404.528 487.727 405 482L408 483C408.25 479.505 410.422 477.269 411.44 473.999C412.564 470.388 412.471 465.78 412.83 462C414.113 448.523 413.009 434.434 412.09 421C411.137 407.085 411.146 393.75 408.758 380C406.905 369.331 404.256 354.496 416 349C414.752 348.315 414.452 348.251 413 348L412 338M57 339C58.1317 341.672 59.5292 344.14 60 347C65.9122 346.834 70.9482 350.723 77 351C74.8255 349.675 72.4159 349.839 72 347C69.311 347.997 67.3863 348.253 67 345C61.9471 345.427 60.3655 342.207 57 339M180 356C186.412 358.586 190.326 351.32 195 348C189.176 347.877 186.481 355.507 180 356z"/>
<path style="fill:#ffffff; stroke:none;" d="M411 349L412 350L411 349z"/>
<path style="fill:#000000; stroke:none;" d="M79 354C80.2628 367.242 87.6853 377.238 90.5409 390C91.6612 395.007 88.9375 399.191 89.3681 404C89.8189 409.036 95.505 411.991 94 417C97.0654 418.688 99.4964 419.748 103 420L102 423C103.195 421.777 103.316 421.58 104 420L97 418L101 418C97.351 414.453 92.1326 410.147 90.8727 404.996C90.1317 401.967 91.6216 399.002 91.8958 396C92.4029 390.448 91.9883 384.585 92 379C90.9023 381.613 91.0072 384.165 91 387C89.1174 382.082 88.4668 376.996 87 372L84 373L83 372C83.9758 367.311 81.7518 357.895 79 354M206 364C211.169 365.854 219.355 364 225 364C233.976 364 243.033 363.647 252 364.039C258.375 364.318 264.599 365.759 271 364.532C277.618 363.262 283.565 359.389 290 357.546C296.542 355.672 305.412 356.777 312 358C308.637 355.703 304.983 356.002 301 356C297.124 355.999 292.764 355.467 289 356.546C282.565 358.389 276.618 362.262 270 363.532C263.919 364.698 258.06 363.163 252 363.015C236.818 362.643 221.056 362.097 206 364M327 369C329.664 362.108 335.508 361.031 342 359C335.98 357.515 325.997 362.052 327 369M180 359C177.106 361.436 174.692 363.125 171 364C173.283 364.914 175.539 364.812 178 365C177.402 363.805 177.534 364.023 176 363C177.58 362.316 177.777 362.195 179 361C180.517 361.957 181.339 362.387 183 363L180 359M263 386C270.299 391.975 276.88 387.28 284.039 384.285C294.313 379.987 301.233 370.178 311 365.012C316.486 362.111 322.892 361.005 329 361C320.551 357.455 310.359 363.688 304 368.731C296.715 374.509 289.371 379.876 281.17 384.105C278.726 385.365 276.781 387.141 273.985 387.642C270.278 388.307 266.526 386.991 263 386M195 380C193.814 378.814 193.416 378.472 192 378C202.343 394.554 219.514 408.052 239 411.726C244.094 412.686 249.83 412 255 412C266.745 412 278.977 409.895 289 403.197C299.503 396.178 308.41 381.586 313 370C303.464 379.711 299.929 394.224 288 402.197C263.531 418.55 225.205 412.875 205.289 392C200.044 386.502 194.687 380.586 193 373C189.78 372.221 188.926 371.173 188 368C192.678 368.039 198.03 368.281 201.772 371.51C204.108 373.526 204.711 376.521 206.559 378.87C208.632 381.505 211.918 383.223 215 384.401C224.357 387.978 237.149 387.171 247 387.498C253.034 387.699 258.683 390 265 390C259.558 387.717 251.32 390.214 249 383C247.921 384.441 248.031 384.168 248 386C241.563 386.809 236.364 385.536 230 385.09C224.792 384.724 219.932 385.118 215 382.989C210.552 381.069 204.57 377.422 207 372C205.63 371.418 204.493 371.203 203 371C210.197 369.241 218.062 373.721 225 375.448C231.58 377.085 238.346 376.461 245 377.174C249.746 377.682 254.226 379.562 259 379.91C271.717 380.837 282.588 373.29 295 373C286.938 369.65 275.242 377.237 267 378.56C259.88 379.703 253.908 377.287 247 376.3C240.718 375.403 234.322 375.813 228 374.826C222.381 373.949 216.523 371.666 211 370.154C205.899 368.756 200.24 368.139 195 367.326C193.093 367.03 190.239 366.658 188.623 368.028C184.639 371.404 193.097 377.637 195 380M93 369C93.2086 373.001 93.2461 377.001 93 381C95.0696 377.7 95.236 372.876 96 369C95.3152 370.248 95.2512 370.548 95 372L93 369M323 370C318.121 378.885 309.351 388.3 313 399C314.027 394.168 313.441 389.803 315.715 385C317.923 380.338 323.462 375.315 323 370z"/>
<path style="fill:#ffffff; stroke:none;" d="M86 373L87 374L86 373z"/>
<path style="fill:#000000; stroke:none;" d="M391 373C390.804 377.21 390.142 380.096 387 383L387 379C386.226 381.044 386.408 381.845 387 384C391.197 381.741 392.834 377.498 391 373M365 381L366 396C367.871 391.54 366.95 385.344 365 381M104 382C102.938 387.721 103.302 393.237 103 399C105.21 395.577 105.215 385.951 104 382M368 392C368 397.081 368.183 402.03 367 407C369.868 403.214 369.818 396.333 368 392M229 395C227.814 396.186 227.472 396.584 227 398C229.548 398.109 231.497 399.386 234 399.787C237.94 400.418 242.07 399.54 246 399.394C249.054 399.28 251.556 400.479 252 397C250.173 399.53 249.158 397.825 246 398C239.146 398.381 233.906 400.283 229 395M52 421C57.6508 422.33 61.6262 416.864 66.9591 417.447C69.3289 417.706 71.2038 419.613 73 421C71.0027 422.861 69.5924 424.249 67 425L69 431L72 430C70.7517 429.315 70.4516 429.251 69 429C70.2239 426.842 70.5849 426.559 73 426C73.7794 422.78 74.827 421.926 78 421C79.4202 426.284 81.6548 429.285 81 435C81.6848 433.752 81.7488 433.452 82 432C84.9624 432.618 86.1751 433.059 87 436C95.0899 436.471 102.178 443.614 110 446C106.217 442.774 101.277 440.98 97 438.417C92.3606 435.636 88.3959 432.073 83 431C82.2732 426.183 78.6648 422.766 78 418C76.1348 418.676 76.1368 419.096 75 418L72 420C67.6825 412.17 58.3448 419.301 52 421M89 416C90.2484 416.685 90.5484 416.749 92 417C92.2515 421.604 94.2861 424.836 96 429C96.9005 424.78 93.1248 417.364 89 416z"/>
<path style="fill:#ffffff; stroke:none;" d="M96 416L97 417L96 416z"/>
<path style="fill:#000000; stroke:none;" d="M60 422C57.6407 425.751 56.145 428.517 56 433L51 433C54.6667 434.432 59.0309 433.345 63 434C61.1994 434.562 59.8782 434.824 58 435C59.3643 436.819 59.4922 436.031 59 438C69.1559 433.331 74.9141 437.387 83 443.39C88.4008 447.4 92.0145 448.889 93 456L89 456C90.769 456.779 92.0359 456.912 94 457C94.4168 458.941 94.7439 460.032 97.0725 460.366C100.094 460.799 102.913 459.371 106 460.176C110.674 461.395 114.216 464.902 119 466C116.422 463.422 110.628 460.902 107 458L108 457C104.927 457.934 102.202 458.261 99 458C97.0977 459.156 96.2782 459.156 94 459C95.3203 452.008 97.7705 452.257 104 454C95.8267 447.221 83.6835 445.493 77.6026 435.999C76.0806 433.623 75.8149 430.651 75 428C74.6353 430.323 74.9148 432.632 75 435C70.0088 434.997 65.8073 434.272 61 433L63 432C60.9201 431.493 59.1623 431.763 57 432C57.7479 427.171 59.9611 424.576 65 425C63.3473 423.487 62.106 422.819 60 422M100 428C105.544 429.86 113.016 428.547 115.366 435.715C116.588 439.444 114.8 443.938 116 448L117 437C120.007 439.361 123.811 443.857 120 447C121.139 448.015 121.612 448.309 123 449L123 447C133.352 452.311 149.505 458.258 154.512 469.83C155.999 473.265 155 478.321 155 482C154.127 479.519 153.962 477.638 154 475C149.874 482.974 157.07 492.656 152 500C150.957 496.871 148.062 495.229 150 492L151 493C149.979 490.892 149.366 489.296 149 487C146.74 487.035 146.1 486.885 144 486C141.892 487.762 140.526 489.069 140.432 492.005C140.329 495.216 142.468 500.659 139.397 503.129C137.301 504.814 131.729 503.774 129 504C130.788 505.422 131.706 505.697 134 506C133.35 504.7 133.853 505 132 505C134.096 505.016 136.829 505.811 138.853 505.132C144.298 503.304 141.289 491.493 143 487C147.412 490.698 149.475 495.226 150 501C152.998 502.941 152.984 505.703 154 509C154.481 505.904 153.907 502.987 153 500C158.742 500.125 165.844 505.165 167 511C169.139 509.452 171.536 506.442 174.17 505.862C176.525 505.343 179.621 506.712 182 507L180 508C181.498 508.479 181.35 508.4 183 508C178.94 504.558 173.418 503.185 169 500C170.281 508.563 161.113 502.089 158.313 498.826C153.252 492.93 154.583 486.8 155.742 480C156.279 476.843 156.029 474.602 158 472C153.092 464.508 146.692 458.275 139 453.608C134.749 451.029 129.202 449.5 125.408 446.292C123.114 444.352 122.836 441.383 121.226 439C116.182 431.533 109.166 426.449 100 428M46 434C47.4446 438.236 47.211 442.566 47 447C50.1472 443.61 52.5569 443.702 57 444C56.529 441.54 56.3099 440.922 54 440C54.5977 441.195 54.4661 440.977 56 442L48 442C48.1863 439.339 48.1816 436.982 50 435C48.6303 434.418 47.4935 434.203 46 434M60 439C58.8137 440.186 58.4721 440.584 58 442C61.2145 443.386 63.0939 444.566 64 448L73 448C70.6685 447.015 68.5433 447.019 66 447C65.3156 443.953 62.2473 441.278 60 439z"/>
<path style="fill:#ffffff; stroke:none;" d="M60 440L61 441L60 440z"/>
<path style="fill:#000000; stroke:none;" d="M44 441C44 447.649 42.9575 453.487 42 460L45 457C44.7281 451.814 46.0308 445.84 44 441M102 447C103.506 447.683 104.315 447.826 106 448C106.287 449.883 106.795 451.365 106 453C108.262 454.548 109.322 455.328 110 458L113 457C110.906 453.979 108.547 451.34 107 448C111.165 451.026 113.806 452.488 119 452L116 449L113 452L114 449C109.778 448.431 106.382 446.739 102 447z"/>
<path style="fill:#ffffff; stroke:none;" d="M106 447L107 448L106 447M93 449C93.4825 451.364 93.636 451.518 96 452C96 450.203 95.9857 450.479 95 449L93 449z"/>
<path style="fill:#000000; stroke:none;" d="M11 450C10.638 455.031 7.78182 459.054 7 464C2.7692 464.879 1.70737 469.035 1 473C2.88108 470.201 4.07333 467.24 5 464C9.63492 463.441 12.9768 454.146 11 450M182 450C188.617 455.787 198.251 458.086 205.981 461.899C208.84 463.309 210.517 466.087 213.259 467.586C220.538 471.565 229.783 473.914 238 474.833C245.663 475.691 253.273 476.311 261 475.961C264.53 475.801 268.567 474.078 271.952 475.603C279.317 478.923 272.356 486.921 279 491L274 494L275 498C276.056 496.276 276.036 496.079 276 494C278.753 493.303 281.158 492.953 284 493L281 495C283.295 495.619 285.623 495.781 288 496C286.752 495.315 286.452 495.251 285 495L286 492C294.553 494.481 310.815 500.775 312 511C313.65 509.762 313.333 508.334 314 511C314.063 508.049 312.161 506.231 310.15 504.043C304.147 497.512 294.551 496.308 288.549 490.44C284.154 486.144 283.691 480.47 278 477L279 479C276.554 477.132 274.104 474.417 270.996 473.738C267.521 472.978 263.526 474.801 260 474.961C252.646 475.294 245.281 474.693 238 473.711C229.012 472.5 220.865 467.731 212 467C210.134 460.9 205.204 460.769 200 458.61C193.721 456.005 188.604 452.117 182 450M120 454C122.532 455.422 125.191 456.247 128 457L127 460C131.991 461.465 136.844 463.888 141 467L136 466C139.549 468.598 143.857 471.543 148 473C145.668 470.692 144.344 469.315 144 466C142.118 465.63 140.047 464.989 141 463L130 460C129.054 455.45 124.23 454.433 120 454M315 454L315 469C316.74 464.852 316.74 458.148 315 454M122 456C121.377 458.362 121.18 460.557 121 463C122.541 465.719 121.229 467.265 117.98 467.468C114.351 467.695 107.684 463.72 104.781 466.644C102.386 469.054 103.322 475.764 103 479C104.195 478.402 103.977 478.534 105 477C107.824 484.691 108.438 493.411 115 499C109.702 489.033 104.294 477.469 105 466C109.471 467.034 113.415 468.955 118 468L118 470C121.097 469.151 123.794 468.875 127 469C125.752 468.315 125.452 468.251 124 468C123.816 463.97 123.085 459.877 122 456M53 460L54 462C51.4893 462.359 49.5018 462.402 47 462L47 465L51 465C48.3911 466.854 45.865 468.58 43 470C44.2326 471.972 44.1255 473.843 45 476C39.7194 477.266 28.8963 480.755 29 487L26 487C27.4041 491.185 31.9495 502.56 37 495C31.259 497.519 29.2127 492.928 28 488C32.3675 488.503 35.7212 487.693 38 492C40.5158 488.616 44.0201 489 48 489C44.6501 487.597 41.4789 488.172 38 489C39.9263 486.784 41.3914 485.306 44 484C41.8365 483.324 40.2684 483.613 38 484L38 488C35.0489 487.066 32.0468 486.574 29 486L29 484C34.9268 482.289 40.5675 478.908 46 476L45 472C47.2035 471.006 47.0476 471.33 47 469L71 466L71 469C72.8499 468.798 74.1501 468.798 76 469C75.2361 471.746 75.2361 473.254 76 476C76.3208 473.975 76.125 472.067 76 470C80.724 469.424 87.9113 465.718 90 472C94.2074 472.547 94.9638 479.373 96 483C94.085 481.723 94.915 481.723 93 483C94.6332 483.581 95.287 483.45 97 483C96.3225 479.322 95.4793 475.239 93.5 472C92.5075 470.376 90.7414 469.247 90 467.5C89.7228 466.847 92.6357 466.915 92 467C90.7517 466.315 90.4516 466.251 89 466C90.1863 464.814 90.5279 464.416 91 463C88.3862 464.002 86.7732 464.322 84 464C85.7885 465.422 86.7057 465.697 89 466C85.4237 467.047 82.6146 466.859 79 466L80 469C76.2871 468.197 73.0156 466.063 69.2855 465.407C64.1634 464.506 58.2374 465.999 53 466L55 465C53.7517 464.315 53.4516 464.251 52 464C53.5982 462.519 54.1083 461.939 55 460C66.9355 462.117 79.9303 459.033 92 459C87.7563 457.22 83.4433 458.606 79 458.91C70.4043 459.499 61.4781 458.322 53 460z"/>
<path style="fill:#ffffff; stroke:none;" d="M129 458L130 459L129 458z"/>
<path style="fill:#000000; stroke:none;" d="M256 466C260.624 467.94 265.332 466.637 270 465.415C278.498 463.19 286.091 460.025 295 460L295 465C295.951 463.059 296.439 461.102 297 459C292.619 459.282 288.333 458.825 284 459.844C274.32 462.12 266.176 465.999 256 466M210 460C215.781 464.671 224.664 466.844 232 467C225.408 464.035 217.04 461.925 210 460z"/>
<path style="fill:#ffffff; stroke:none;" d="M51 464L52 465L51 464M51.6667 466.333C51.2222 466.778 52.2778 466.722 52.3333 466.667C52.7778 466.222 51.7222 466.278 51.6667 466.333M49 467L50 468L49 467z"/>
<path style="fill:#000000; stroke:none;" d="M158 468C160.318 475.253 164.551 475.29 170 479.312C176.484 484.099 182.622 490.707 190 494C188.355 499.579 190.056 505.247 190 511C192.42 505.551 189.647 499.766 191 494C197.453 499.274 198.999 502.808 199 511C203.47 500.346 194.67 495.96 187.171 491.049C181.507 487.34 176.463 482.345 171 478.312C168.633 476.565 165.613 476.186 163.329 474.402C161.171 472.717 159.788 470.046 158 468M133 469L133 472C131.144 470.952 130.056 470.487 128 470C130.209 471.647 132.491 472.856 135 474C133.814 475.186 133.472 475.584 133 477C134.731 475.358 135.382 474.306 136 472L134 473L137 470L133 469z"/>
<path style="fill:#ffffff; stroke:none;" d="M45.6667 470.333C45.2222 470.778 46.2778 470.722 46.3333 470.667C46.7778 470.222 45.7222 470.278 45.6667 470.333z"/>
<path style="fill:#000000; stroke:none;" d="M72 470C71.2197 475.355 73.5924 481.309 79 483C77.0069 481.008 76.272 479.811 76 477C72.8283 477 73.4473 474.625 74 472L72 473C72.216 471.577 72.2735 471.328 72 470M100 474C98.6531 478.699 100.211 482.343 101 487C101.924 485.352 102.449 483.825 103 482C98.9614 482 99.6586 476.908 102 475C101.35 473.7 101.853 474 100 474M59 475C60.6118 480.439 65.4527 483.907 67 489C69.1065 489.199 69.5433 489.456 71 491L74 490L74 487C66.5189 488.925 62.9908 479.749 59 475M304 475C305.799 478.892 308.816 481.601 309 486C312.145 486.968 312.573 488.85 313 492C315.346 485.739 308.232 478.931 304 475M117 477L114 479C115.973 484.385 117.574 488.18 117 494C118.799 491.588 118.773 488.752 120 486C117.821 485.274 118.22 485.561 119 484C117.207 482.417 116.22 481.078 115 479C116.797 479 116.521 478.986 118 478L117 477M161 480C164.219 485.686 163.676 491.211 161 497C162.661 496.792 162.54 496.505 163 498C164.854 493.677 164.346 489.395 168 486C166.341 485.594 165.758 485.691 164 486C163.961 483.373 163.839 481.336 165 479C163.052 478.788 162.874 479.026 161 480z"/>
<path style="fill:#ffffff; stroke:none;" d="M286 492C285.883 490.233 285.796 488.662 285.185 486.976C284.707 485.656 284.051 484.269 283.25 483.113C277.979 475.499 273.239 487.102 279.633 490.772C281.641 491.924 283.758 491.932 286 492z"/>
<path style="fill:#000000; stroke:none;" d="M319 482C320.302 490.169 327.258 495.62 332 502C331.751 497.79 327.972 494.872 325.37 491.754C322.828 488.707 321.138 485.281 319 482M73 485C74.1393 486.015 74.6116 486.309 76 487C75.0227 496.063 81.4573 497.473 88 501.035C91.7807 503.093 94.8539 505.677 99 507C98.4549 508.635 98.6352 508.455 97 509C99.3997 509.31 101.589 508.483 104 508C96.1567 504.13 87.8632 497.888 79 497C78.1737 492.455 77.1962 487.34 73 485M103 486C103.016 491.588 103.423 495.372 108 499C106.814 500.186 106.472 500.584 106 502C112.772 500.528 120.14 503.117 125 508L130 508C128.014 506.699 127.372 506.67 125 507C121.558 501.348 114.051 502.052 109.044 498.436C104.386 495.072 104.968 490.645 103 486z"/>
<path style="fill:#ffffff; stroke:none;" d="M30 487L31 488L30 487z"/>
<path style="fill:#000000; stroke:none;" d="M280 489L281 490L280 489M45 490C49.7906 492.151 55.0444 491.212 60 492.569C65.6975 494.128 71.8288 498.943 76 503L71 502C74.7428 504.51 79.8428 505.927 84 508L83 510L84 511C85.3372 509.72 86.3998 508.97 88 508L89 511C90.1699 509.245 89.3534 508.341 92 508C89.3916 507.006 86.5522 507.719 83.9606 506.537C76.3774 503.08 70.8081 495.64 63 492.275C57.916 490.083 50.5074 490.114 45 490M272 490L271 511C273.263 505.62 274.288 495.453 272 490M5 500C5.59771 501.195 5.46609 500.977 7 502L1 504C1.59771 505.195 1.46609 504.977 3 506C1.92052 507.441 2.03132 507.168 2 509C3.01137 507.508 3.43027 506.911 5 506C4.40229 504.805 4.53391 505.023 3 504C11.6392 501.527 18.3439 503.727 27 505C25.3296 503.33 24.4242 504.303 25 502C19.0112 502.669 13.3425 501.8 8 499C14.0042 496.147 18.0665 492.168 25 492C17.5643 488.91 10.9001 496.358 5 500z"/>
<path style="fill:#ffffff; stroke:none;" d="M275 496L276 497L275 496z"/>
<path style="fill:#000000; stroke:none;" d="M279 497C278.697 499.294 278.422 500.211 277 502C279.833 503.379 281.507 504.099 283 507C283.911 505.623 284.404 504.56 285 503L284 502L281 503C280.439 500.898 279.951 498.941 279 497M39 499C41.5262 502.785 48.6244 501.658 53 502L52 504C54.442 504.11 56.6228 504.428 59 505C57.0758 503.397 55.409 502.753 53 502C56.1577 501.213 58.5621 501.228 61 499C57.4187 500.208 54.6611 499.703 51 499C51.6498 500.3 51.1468 500 53 500C48.6893 500.73 43.0358 500.826 39 499z"/>
<path style="fill:#ffffff; stroke:none;" d="M7 500L8 501L7 500z"/>
<path style="fill:#000000; stroke:none;" d="M32 503C31.7761 504.684 31.7817 505.314 32 507C29.4982 507.402 27.5107 507.359 25 507C26.3643 508.819 26.4922 508.031 26 510C28.994 509.158 31.9174 508.416 35 508L32 503z"/>
<path style="fill:#ffffff; stroke:none;" d="M283 503L284 504L283 503M171 504L167 508L168 509C169.777 507.435 170.926 506.374 171 504z"/>
<path style="fill:#000000; stroke:none;" d="M205 509C208.242 510.032 211.646 510.421 215 511C215 507.156 223.858 510 227 510C220.905 507.264 211.362 507.233 205 509z"/>
<path style="fill:#ffffff; stroke:none;" d="M210 509L211 510L210 509z"/>
</svg>
