<?xml version="1.0" standalone="yes"?>
<svg xmlns="http://www.w3.org/2000/svg" width="512" height="512">
<path style="fill:#ffffff; stroke:none;" d="M0 0L0 512L512 512L512 0L0 0z"/>
<path style="fill:#000000; stroke:none;" d="M68 1C65.2 16.0818 67 32.6841 67 48C68.552 44.3014 68 39.9828 68 36L68 14C68.0016 9.85815 69.1974 4.89282 68 1M112 8C111.511 11.7389 107.34 11.3418 107 16C101.121 17.6611 100.321 22.8499 95.7762 26.0309C85.9993 32.8738 79.1414 40.7133 71.3889 49.831C66.9994 54.9934 61.7974 60.3435 59.8002 67C58.381 71.7298 59 77.1169 59 82C60.9776 77.287 59.3581 71.8977 61.1327 67C64.5374 57.6037 73.6467 48.247 80.4035 41.0803C87.1638 33.9099 95.4329 28.7514 101.405 21.3032C104.134 17.8998 107.265 16.5398 108 12C114.445 11.0048 117.652 4.96063 124.001 3.32639C127.443 2.44043 130.57 3.59976 134 3.91049C139.689 4.42593 145.305 4.70081 151 5L151 2C142.139 5.22351 134.77 0.86908 126 1.56329C120.337 2.01154 116.957 6.50302 112 8M322 2C324.99 3.00638 328.25 2.84308 331 4.60028C342.69 12.0703 349.316 26.7997 356.645 38C359.52 42.3939 362.156 47.4583 365.339 51.5756C369.144 56.498 374.225 60.7477 377.526 66.0146C383.527 75.5877 389.678 86.421 393.934 97C395.24 100.248 395.374 103.78 396.806 107C401.355 117.231 407.006 126.538 408 138C409.84 133.278 407.344 127.5 405.576 122.996C401.821 113.437 395.474 104.595 396 94C392.556 93.1974 392.258 89.9402 390.699 87C386.932 79.8945 382.988 73.0291 379.19 66C375.877 59.8692 369.617 55.4209 365.606 49.7407C358.808 40.1111 353.54 29.0665 346.722 19.412C342.311 13.1656 336.236 8.28149 332 2L338 3C334 0.314056 326.655 1.20917 322 2M172 4C170.921 5.44125 171.031 5.16815 171 7L167 9C168.328 9.27353 168.577 9.216 170 9C164.825 11.6584 157.817 10.904 152 12C157.896 13.8127 167.18 11.8155 173 10L170 8C174.012 6.64282 177.873 4.97806 182 4C179.241 1.24118 174.516 6.40656 171 5L172 4M273 10C267.435 11.7642 262.732 12.3647 257 11C261.35 14.2956 271.747 14.3569 273 8L276 7C273.604 6.89963 273.387 7.71268 273 10M419 8C424.184 8.82932 429.87 8.06778 435 9.54553C447.206 13.0616 459.313 22.184 466.157 33.0146C468.781 37.1658 470.097 42.4721 472 47C472.834 39.741 467.007 31.5654 462.37 26.5795C451.832 15.2462 435.675 3.11713 419 8M1 8C4.95799 13.106 8.9058 17.3614 10.1497 24C11.707 32.3114 9 42.4526 9 51C10.4646 47.5096 9.81416 43.7366 10.1698 40C11.266 28.4807 13.5038 14.4041 1 8M315 8C315 13.819 316.627 22.2129 313 27C315.36 31.1611 315.519 35.588 320 38C317.574 34.7617 316.367 32.0454 316 28L320 28C318.494 27.317 317.685 27.1741 316 27C316 21.0988 317.295 13.4692 315 8M39 10C32.8942 12.4808 27.1021 15.7957 23.0432 21.1705C12.8113 34.7198 12.2658 58.5441 17.8441 74C19.1809 77.7037 19.6658 81.8114 22.3032 84.8958C27.0874 90.4906 34.0678 92.1193 41 93C39.7518 92.3152 39.4515 92.2512 38 92C39.1863 90.8137 39.528 90.4161 40 89C25.4916 95.0163 18.3252 76.1989 16.4429 65C12.8311 43.5117 18.403 19.7748 40 11L39 10M294 10C288.614 16.2196 281.706 21.3239 277 28C279.627 26.4337 282.139 25.0888 285 24C284.223 22.4461 284.725 22.8499 283 24C286.609 19.4476 292.901 16.0877 294 10M432 15C430.276 16.0555 430.079 16.0358 428 16C434.541 23.5615 442.688 29.6601 448.381 38.0146C455.357 48.2511 459.138 60.7935 464 72C464.732 68.4398 461.887 65.4863 460.973 62C458.554 52.77 453.216 41.6952 447.289 34.1698C442.119 27.6047 435.523 22.6721 432 15M36 20C31.8163 30.2015 31.0073 40.9773 31 52C33.1146 46.9719 32.7907 40.423 33.0394 35C33.1539 32.5019 33.1873 28.4383 34.9884 26.466C37.7454 23.4472 42.6683 29.2061 44.3156 31.1698C50.1794 38.1598 48 49.4464 48 58C50.4161 52.2421 50.4537 38.5292 47.3472 33.0146C44.549 28.0472 39.431 24.5556 36 20M278 37C281.369 35.4911 284.975 34.3047 287.946 32.0579C291.672 29.2399 293.434 25.5979 298 24C292.843 22.6447 290.574 28.3118 286.946 31.0579C283.959 33.319 280.589 34.2669 278 37z"/>
<path style="fill:#ffffff; stroke:none;" d="M315 27L316 28L315 27z"/>
<path style="fill:#000000; stroke:none;" d="M305 34C310.487 49.0501 306.653 64.0624 304 79C312.855 65.8179 305.73 50.2245 309 36C306.941 36 306.667 35.1905 305 34M465 43C467.644 49.4774 471.343 55.9911 472.206 63C472.915 68.7563 471.046 74.217 472 80C474.288 73.209 473.302 65.0575 473 58L474 60C476.523 55.7812 475.368 51.6643 475 47C473.732 50.2494 474.729 53.5674 475 57L474 55C473.315 56.2483 473.251 56.5485 473 58C470.567 52.9908 468.953 46.9567 465 43M32 54C32.0041 60.1907 34.226 65.052 35 71C36.5199 66.9751 33.6928 58.0251 32 54M8 58C8 63.582 7.533 68.8736 10 74C10.1964 69.5405 9.72657 62.1146 8 58M57 81C54.6847 90.6579 47.5356 98.4275 44.4051 108C41.1577 117.93 43.523 127.984 42.9421 138C42.622 143.519 39.4852 148.547 38.5687 154C37.4352 160.743 39.3825 169.419 41 176C42.5274 169.622 39.3014 162.479 39.6991 155.91C40.0379 150.314 43.2318 145.472 43.8704 140C44.9172 131.03 42.8996 122.112 44.4429 113C46.2769 102.172 55.0121 94.2802 57 84C57.9857 85.4785 58 85.2032 58 87C58.7355 84.5667 58.3055 83.1807 57 81M19 90L16 97L18 96C17.52 98.3596 17.4808 99.6626 18 102C18.6253 99.5987 18.2094 96.5119 19.429 94.3179C21.8236 90.0102 28.5974 92.7599 32 94C28.3366 90.5674 23.6892 91.1169 19 90M3 91C5.1624 92.2544 7.7112 93.1463 9.25849 95.2276C14.8762 102.784 7.4422 109.371 1 112C13.8828 113.569 16.3866 92.4952 3 91M314 91C314.923 96.3381 318.238 100.677 319 106C320.768 101.28 316.636 94.9633 314 91M492 91C497.409 94.8489 504.693 93.0007 511 93C505.423 90.6598 498.065 92.2009 492 91M250 93C256.887 95.1185 267.589 93 275 93C268.22 90.1548 257.119 91.6784 250 93M266 117L267 121C270.757 115.468 274.826 110.785 281 108C279.49 107.75 278.565 107.82 277 108C279.787 104.364 285.571 100.984 290 99.5555C292.683 98.6902 295.488 97.5259 296 101L298 97C283.539 93.71 276.222 111.586 266 117M268 97L267 106C267.852 104.821 267.682 104.628 269 104C269.476 100.335 271.522 99.5211 275 99C272.767 97.9905 270.396 97.5948 268 97M170 100C176.462 102.712 184.47 100.493 191 99C187.888 98.0795 185.181 99.4358 182 99.8156C178.058 100.286 173.964 100 170 100M239 98C243.516 100.188 248.389 100.203 252 104C252.123 98.7689 243.015 98.1835 239 98M179 114C186.753 106.404 191.037 102.044 202 100C192.475 97.0703 182.46 105.828 179 114M154 105C156.485 105.316 158.574 104.672 161 104C157.702 109.213 149.809 106.853 145.022 111.143C137.697 117.709 140.042 126.424 138 135C141.176 130.808 138.908 125.764 140.894 121.108C142.229 117.976 145.789 116.441 148 114L141 117C143.679 114.331 146.403 110.961 150 109.522C152.832 108.39 156.025 108.978 158.91 107.972C164.612 105.984 167.662 104.004 174 104C168.424 101.66 159.56 102.96 154 105M220 103C217.511 106.733 217.008 104.998 213 106C210.352 106.662 207.798 108.6 205 109L203 107C199.794 105.664 196.091 107.855 193 106L194 105C188.866 108.602 182.055 113.11 183 120C178.858 121.107 175.333 122.445 171 122C175.386 125.052 183.517 121.616 189 122C187.41 120.955 185.075 119.912 184.596 117.87C183.417 112.849 192.049 108.34 196 108.063C199.489 107.819 202.596 109.425 206 109.415C209.777 109.404 213.165 106.9 217 107.392C220.871 107.888 223.928 110.765 228 110.613C231.826 110.469 235.217 108.055 239 107.507C244.147 106.762 249.883 108.353 255 109C250.608 106.369 243.04 105.581 238 106.471C230.96 107.715 224.271 112.494 220 104C224.327 104.941 228.626 104.278 233 105C229.136 102.376 224.488 103.64 220 103M329 106C328.842 110.39 326.304 112.489 324.28 116.166C320.777 122.528 318.811 131.087 310 129C313.914 132.311 317.081 131.143 319.965 127.02C324.232 120.919 326.254 114.038 332 109C331.027 107.73 330.27 106.973 329 106M299 107C299.152 113.666 303.082 128.471 295 131L296 134C297.015 132.861 297.309 132.388 298 131C299.635 131.545 299.455 131.365 300 133C302.265 126.57 301.884 113.152 299 107M345 116C348.835 126.289 346.13 134.565 347 145C350.06 137.344 350.977 122.299 345 116M137 125L126 147C127.452 146.749 127.752 146.685 129 146C128.768 141.901 132.422 135.134 135 132L134 134L138 133C136.752 132.315 136.452 132.251 135 132C136.263 129.585 137.232 127.715 137 125M210 129C214.792 130.474 221.024 128.643 226 128.17C231.605 127.636 237.373 128 243 128C234.162 124.292 219.206 127.291 210 129M360 128C361.486 130.029 362.359 131.575 363 134C361.814 132.814 361.416 132.472 360 132L364 141C361.206 140.025 358.948 139.035 356 139C359.549 140.865 361.826 142.545 364 146C365.099 140.644 365.099 130.821 360 128M243 131C251.986 132.95 261.841 132 271 132C265.966 129.888 259.41 131.118 254 130.985C250.159 130.891 246.754 130.052 243 131M410 136C411.469 142.489 407.928 147.889 406 154C409.818 149.599 413.905 141.162 410 136M141 144C140.934 149.104 137.698 153.264 136 158C137.819 156.636 137.031 156.508 139 157C139.222 152.292 141.206 149.669 146 151C144.502 148.44 143.055 146.127 141 144M157 144C156.42 148.082 157.255 151.934 157 156C158.3 155.35 158 155.853 158 154C158.986 155.479 159 155.203 159 157C159.855 153.521 158.267 147.427 157 144M366 145C366.07 146.952 366.354 146.94 365 148C366.232 149.232 367.495 147.663 368 148C370.002 149.335 370.734 152.165 370 154L369 153L370 156C367.095 154.29 364.713 152.912 363 150C361.985 151.139 361.691 151.612 361 153C358.052 151.408 355.256 149.836 352 149C356.647 153.089 363.269 152.731 367.772 156.713C370.771 159.364 371.477 163.467 373 167C373.292 163.895 371.93 161.221 371.388 158.17C370.331 152.217 370.875 149.579 366 145M404 154C404 158.046 403.185 163.153 404.603 167C406.469 172.059 412.108 176.115 415.91 179.715C422.182 185.652 427.93 192.267 433.336 198.996C451.852 222.045 469.043 245.68 485.883 270C491.074 277.495 495.858 285.212 500.58 293C503.395 297.642 506.625 301.675 508 307C509.395 302.204 505.338 297.872 502.848 294C496.84 284.659 491.064 275.214 484.836 266C468.507 241.843 451.389 218.383 432.715 196C427.995 190.343 423.149 184.682 417.83 179.576C413.912 175.814 408.498 171.941 406.028 167C403.999 162.942 405.735 158.134 404 154M365 167C364.555 169.89 364.261 172.167 365 175C369.359 173.815 372.109 175.481 373 180L378 180C375.257 177.427 373.399 175.853 373 172C370.149 172.09 367.76 171.721 365 171C365.465 169.069 365.574 168.809 365 167z"/>
<path style="fill:#ffffff; stroke:none;" d="M365.333 172.667C365.278 172.722 365.222 173.778 365.667 173.333C365.722 173.278 365.778 172.222 365.333 172.667z"/>
<path style="fill:#000000; stroke:none;" d="M127 173C127.598 174.195 127.466 173.977 129 175C127.365 175.545 127.545 175.365 127 177L132 179L131 177C134.04 177.724 136.878 177.974 140 178C136.212 176.366 132.051 176.422 128 177C129.517 176.043 130.338 175.613 132 175C130.307 173.938 128.96 173.48 127 173M43 174C43 182.65 43.1736 191.418 44.2894 200C44.836 204.205 47.2359 208.825 47.1119 213C47.0169 216.197 44.5943 218.821 44.1443 222C42.9566 230.392 43 239.515 43 248C46.2817 240.179 43.4362 230.197 45.3032 222.001C46.0126 218.887 48.365 215.15 52.0347 215.872C54.1408 216.286 56.1904 217.928 58 219L55 223C56.4567 221.897 56.8966 221.457 58 220C59.9444 222.084 61.4995 223.679 64 225L63 227C65.9839 228.765 67.5087 230.517 68 234C69.6351 233.455 69.4549 233.635 70 232C64.9694 224.921 58.1709 215.021 49 214C47.808 208.271 45.5145 202.928 45.0895 197C44.5921 190.062 45.6649 180.351 43 174M400 176C400.393 179.235 399.36 181.812 399.199 185C398.953 189.866 399.692 194.14 398.259 199C397.243 202.448 395.095 205.482 394.324 209C393.1 214.584 393.496 220.396 392.583 226C391.9 230.196 392.547 239.879 388 241L389 243C388.665 243.67 387.316 244.947 388 247C388.491 248.474 390.521 249.562 391 251C391.6 252.801 390.538 255.152 391 257C391.996 260.986 393.87 265.045 395 269L394 271C394.272 272.633 395.313 273.811 395 276L393 278C391.507 281.583 393.677 286.354 395 289L394 289C394.323 291.907 395.948 292.737 393 292C395.751 301.789 396.37 314.048 394 324C396.477 320.73 396 317.001 396 313C396 305.45 396.095 297.808 395.671 290.285C395.371 284.957 392.599 281.314 397 277C394.91 268.728 391.088 257.322 393 249C388.862 246.547 389.993 243.814 392 240C401.215 251.915 406.421 267.195 412.086 281C425.092 312.688 434.465 345.465 444.835 378C448.728 390.214 454.19 401.891 458.355 414C459.586 417.58 459.542 421.419 460.684 425C462.935 432.062 467.473 438.785 469 446C471.654 446 472.632 448.867 470 450.5C468.312 451.548 463.055 452.381 461 452.667C445.914 454.762 429.548 451.672 415 447.833C412.081 447.063 408.801 447.6 406 446.667C395.335 443.112 385.061 437.391 375 432.5C368.241 429.215 354.949 427.017 354 418C352.888 421.553 355.036 424.079 358.019 426.125C364.067 430.273 371.479 432.569 378 435.845C399.429 446.61 423.83 453.991 448 454C453.89 454.002 466.988 455.339 471.353 450.4C474.421 446.929 468.298 440.295 466.885 437C463.473 429.045 462.116 421.028 459.355 413C457.604 407.91 455.083 403.08 453.297 398C441.2 363.587 431.886 328.194 419.085 294C414.285 281.178 408.743 268.303 402.742 256C399.722 249.808 394.892 243.596 392.914 237C391.728 233.045 393.428 228.955 393.829 225C394.365 219.73 394.16 214.138 395.637 209C397.892 201.153 400.844 195.442 400.514 187C400.355 182.932 402.442 179.525 400 176M142 180C140.994 181.676 140.991 182.586 140 181C137.334 186.781 134.465 188.844 128 189C133.439 191.26 137.537 187.899 142 185C142.345 182.363 143.414 182.339 146 182C144.623 181.089 143.56 180.596 142 180M370 182C376.836 186.821 375.823 197.429 376.015 205C376.147 210.231 378.201 214.88 378.816 220C379.995 229.821 380 240.102 380 250C382.489 244.068 380.763 236.232 380.17 230C378.809 215.704 376.12 201.448 376 187C378.709 187.648 381.216 187.942 384 188C381.171 186.729 378.084 186.392 375 186C375.202 184.15 375.202 182.85 375 181C373.805 181.598 374.023 181.466 373 183C371.559 181.921 371.832 182.031 370 182z"/>
<path style="fill:#ffffff; stroke:none;" d="M374 183L375 184L374 183z"/>
<path style="fill:#000000; stroke:none;" d="M413 189C418.226 195.804 424.338 203.624 431 209C428.854 205.278 425.929 202.225 425 198C422.108 197.149 421.559 195.923 421 193L418 194L417 193L419 189C416.768 189.363 415.232 189.363 413 189M101 221L100 217C99.2256 219.044 99.4078 219.845 100 222C103.205 217.77 100.93 212.745 102.742 208C107.003 196.846 116.93 196 127 196C117.466 192 105.461 197.266 101.742 207C100.153 211.16 101 216.616 101 221M264 199L262 204C265.142 206.904 265.804 209.79 266 214C267.347 210.698 266.439 207.473 266 204L270 205C267.776 203.431 266.706 203.516 264 204C264.301 202.069 264.467 200.846 264 199M221 205C222.328 205.273 222.577 205.216 224 205L224 210C224.779 208.231 224.912 206.964 225 205L255 205C251.565 203.559 247.702 204 244 204C236.85 204 227.63 202.333 221 205M272 203C278.383 205.865 286.148 204.847 293 205C287.375 202.319 278.266 203.129 272 203z"/>
<path style="fill:#ffffff; stroke:none;" d="M224 204L225 205L224 204z"/>
<path style="fill:#000000; stroke:none;" d="M95 211C93.6825 213.327 92.7393 215.433 92 218C93.1954 217.402 92.9774 217.534 94 216L92 226L96 224C94.7516 223.315 94.4516 223.251 93 223C94.924 219.165 94.8824 216.194 95 212L96 216C96.791 213.693 96.475 212.935 95 211M167 212C172.335 214.239 184.359 214.222 190 213C182.555 211.003 174.625 212 167 212M258 212C257.142 215.327 255.7 218.024 254 221C256.529 219.707 258.177 219.033 261 219L262 214C261.315 215.248 261.251 215.548 261 217L258 212M328 212C332.519 214.118 337.186 212.694 342 213.059C345.256 213.305 348.013 214.832 351 216C344.962 210.115 335.818 212.182 328 212M201 214C202.769 214.779 204.036 214.912 206 215L202 216C205.14 217.33 208.665 217.222 212 218.043C216.977 219.268 224.377 224.524 228 219C220.071 222.956 209.394 214.539 201 214z"/>
<path style="fill:#ffffff; stroke:none;" d="M258.333 215.667C258.278 215.722 258.222 216.778 258.667 216.333C258.722 216.278 258.778 215.222 258.333 215.667z"/>
<path style="fill:#000000; stroke:none;" d="M282 229L283 232C286.197 229.85 288.205 229.074 292 230C291.455 228.365 291.635 228.545 290 228C293.217 223.72 295.295 220.34 301 222C300.455 220.365 300.635 220.545 299 220C306.766 214.08 314.905 216.648 323.91 216.816C326.936 216.872 329.999 215.802 333.004 216.465C337.756 217.514 340.891 219.94 346 220C334.78 215.106 324.183 214.985 312 215C307.944 215.005 302 214.526 298.259 216.295C291.591 219.447 290.581 228.429 282 229z"/>
<path style="fill:#ffffff; stroke:none;" d="M298 216C297.014 217.479 297 217.203 297 219C298.58 218.316 298.777 218.195 300 217L298 216z"/>
<path style="fill:#000000; stroke:none;" d="M229 219C231.959 220.91 234.697 219.592 237.985 220.529C244.381 222.35 246.856 229.057 247 235L243 234L242 237L239 235L238 238C239.58 238.684 239.777 238.805 241 240C244.968 235.674 247.729 236.922 253 238L253 234L248 235C247.898 223.744 240.253 217.096 229 219M136 229L140 232L136 231C137.744 232.635 139.255 233.738 140 236L151 236C145.294 233.599 141.805 235.061 140 228C145.701 228.424 148.251 225.082 153 222.568C156.377 220.78 160.249 220.299 164 220C156.811 217.194 151.007 222.968 145.17 226.133C142.459 227.602 138.948 228.089 136 229M191 222C193.757 218.423 200.792 220 205 220C201.536 218.327 191.586 217.334 191 222z"/>
<path style="fill:#ffffff; stroke:none;" d="M230.667 219.333C230.222 219.778 231.278 219.722 231.333 219.667C231.778 219.222 230.722 219.278 230.667 219.333z"/>
<path style="fill:#000000; stroke:none;" d="M348 219C352.63 221.078 357.986 220.997 363 221C358.651 219.171 352.734 219.098 348 219M444 222C442.092 231.061 454.201 239.01 458.667 246C459.641 247.524 459.607 249.32 460.5 250.833C463.26 255.51 467.545 259.505 470.667 264C478.44 275.193 485.679 287.307 492.5 299C495.792 304.644 500.11 310.876 504.167 316C506.084 318.422 508.978 321.174 507 324L510 325C507.81 314.969 498.934 306.682 493.799 298C482.93 279.62 470.644 261.674 458.66 243.999C453.495 236.38 447.764 230.373 444 222M99 223C97.6851 224.801 97.277 224.833 95 225C97.3057 230.43 93.1029 233.986 91.5594 239C90.0663 243.851 91 249.963 91 255C89.9774 253.466 90.1954 253.598 89 253L88 256C92.0708 256 88 263.904 88 267C92.1913 258.78 90.9102 250.716 92.1443 242C92.6982 238.088 95.2295 234.887 96 231L100 233C98.1762 229.202 99.8892 226.663 99 223M156 224C156.777 225.554 156.275 225.15 158 224L157 227C161.476 228.274 166.237 225.489 170 228C170.51 224.905 166.54 224.685 164 224C163.57 227.287 160.96 226.95 158 227L160 223L156 224M276 224C273.91 230.175 273.317 236.536 274 243C274.811 240.761 274.529 239.353 274 237C275.186 238.186 275.584 238.528 277 239L277 236C272.477 236 277.098 226.684 276 224M306 227C309.868 228.574 313.059 226.755 317 226.209C321.838 225.539 326.29 226.624 331 225C322.788 223.346 314.162 226.582 306 227M71 231C72.2533 238.601 69.1541 244.862 67 252L71 252C68.8555 244.88 75.4562 237.56 71 231M395 231C396.401 233.775 398.585 235.874 399 239C401.746 239.343 401.87 240.299 402 243C408.258 247.941 410.483 255.941 413.591 263C420.036 277.639 425.612 291.769 430.458 307C432.082 312.102 434.78 316.883 436.485 322C443.594 343.345 450.46 364.728 457.757 386C460.103 392.839 461.069 400.077 463.541 407C466.887 416.372 471.123 425.544 474.15 435C475.195 438.261 475.027 441.715 476 445C477.038 438.35 474.353 433.081 472.241 427C468.547 416.367 463.792 405.862 460.785 395C452.582 365.355 442.502 335.924 431.799 307C427.73 296.002 424.904 284.832 420.165 274C413.801 259.453 407.946 241.095 395 231M88 234C86.6469 234.859 86.645 234.823 85 235C86.2228 236.195 86.42 236.316 88 237C79.883 238.986 78.6843 241.989 79 250C80.1457 247.194 79.6922 244.929 79 242L83 242C82.4023 240.805 82.5339 241.023 81 240L89 238C88.8069 236.474 88.6306 235.372 88 234M329 234C333.621 236.458 339.151 236.737 344 239C344.166 237.127 344.445 235.804 345 234C339.529 236.083 334.642 234.446 329 234M281 235C285.168 237.831 291.072 236.418 296 237C291.421 234.261 286.11 235.843 281 235M209 236C212.056 239.347 216.642 241.516 218 246C220.012 247.584 221.46 248.967 223 251C219.969 251.339 217.046 251.105 214 251L222 254L221 256L222 257L225 254C223.672 253.727 223.423 253.784 222 254C222.894 251.885 223.497 249.686 225 248C223.502 247.521 223.65 247.6 222 248C219.102 242.417 214.641 238.684 209 236z"/>
<path style="fill:#ffffff; stroke:none;" d="M250 236L251 237L250 236z"/>
<path style="fill:#000000; stroke:none;" d="M298 236C296.289 239.828 293.392 242.603 291 246C295.417 242.904 298.876 239.901 304 238C301.607 237.319 299.891 238.004 298 236M183 238L183 242C185.055 240.861 185.049 241.182 185 239L191 239C188.812 240.374 188.233 240.561 188 243C181.746 243.056 176.274 243.71 170 243C171.984 244.632 179.186 246.039 178 249C182.76 251.288 191.801 252.498 197 251.365C203.448 249.959 207.116 247.366 214 249C205.934 242.153 193.53 238.036 183 238M159 241C159.65 242.3 159.147 242 161 242C156.152 243.577 152.666 244.327 150 249C155.274 245.025 159.292 243.285 166 244C165.35 242.7 165.853 243 164 243L168 241C165.579 240.768 163.395 241.464 161 242C162.517 241.043 163.339 240.613 165 240C162.63 239.411 161.293 240.045 159 241z"/>
<path style="fill:#ffffff; stroke:none;" d="M188 242C190.418 242.722 192.472 242.948 195 243C189.785 244.541 184.317 243.734 179 245C184.617 255.704 199.427 248.029 208 247C202.441 243.081 194.805 238.349 188 242z"/>
<path style="fill:#000000; stroke:none;" d="M314 240C310.653 243.246 308.356 243.045 304 242C304.598 243.195 304.466 242.977 306 244C303.606 246.312 302.409 247.857 299 248C299.472 249.416 299.814 249.814 301 251C297.831 251.008 295.041 251.1 292 252C292.166 250.127 292.445 248.804 293 247C290.956 247.841 290.718 248.203 289 247C287.119 249.765 284.167 252.59 283.607 256C282.922 260.174 285.194 264.672 285 269C286.402 267.059 287.221 265.27 288 263C286.7 263.65 287 263.147 287 265C284.389 258.922 283.591 252.195 292 252C291.202 254.359 291.012 254.557 293 256C292.402 254.805 292.534 255.023 291 254C300.788 249.852 309.633 250.079 320 250L318 251C322.008 251.963 326.769 251.466 331 252C329.752 251.315 329.452 251.251 328 251C336.985 246.824 341.221 250.896 350 253L348 255C351.637 259.042 355.699 259.941 361 260L349 256C350.186 254.814 350.528 254.416 351 253C343.794 249.143 338.084 247.429 330 247C330 249.849 326.678 250 324 250C317.738 250 311.342 248.167 305 248L306 244C309.044 244.767 311.887 245.811 315 246C313.933 245.401 313.258 245.247 312 245C316.116 243.358 319.684 244.648 324 245C320.906 243.343 317.435 242.709 314 242L316 241C315.35 239.7 315.853 240 314 240M191 241L192 242L191 241M39 242C39 245.968 38.6816 250.13 39.7191 254C40.6483 257.466 42.649 260.347 42.9421 264C44.6597 285.403 42.742 306.843 52.0802 327C55.7416 334.903 58.9487 341.907 66.0008 347.482C71.2372 351.622 81.3134 354.116 80 362C81.7006 360.11 82.8253 358.323 85 357C84.7924 355.339 84.5046 355.46 86 355C81.4021 354.071 78.2506 353.784 74 351.189C55.5447 339.92 46.5369 316.117 45.0895 295C44.3398 284.062 45.9394 271.706 43.7014 261C43.1144 258.192 41.4604 255.765 40.7191 253C39.736 249.333 40.4643 245.49 39 242M195 242L196 243L195 242M371 244C371.609 250.652 367.391 251.316 364 256C368.96 254.048 374.901 249.594 371 244M77 245C76.2736 247.179 76.5605 246.78 75 246C75.2572 249.996 74.7896 254.003 75.1698 258C75.7144 263.727 77.7068 271.107 74 276C78.1214 278.143 79.8239 280.453 81 285C83.8702 283.956 86.0339 284.403 89 285L86 281C84.8046 281.598 85.0226 281.466 84 283C82.9375 281.4 83.1161 281.719 81 282C80.0645 278.521 77.6812 275.59 77.1474 272C76.2896 266.231 75.7378 258.816 76.0579 253C76.2105 250.226 77.347 247.708 77 245M168 245C168 247.1 165.196 249.023 163 249.833C157.443 251.885 150.79 250.934 145 252C146.238 253.65 147.667 253.333 145 254C147.08 254.507 148.838 254.237 151 254C149.752 253.315 149.452 253.251 148 253C152.272 251.737 156.643 252.306 160.985 251.367C164.657 250.572 167.171 248.618 171 249C170.045 247.233 169.434 246.393 168 245M202.333 245.667C202.278 245.722 202.222 246.778 202.667 246.333C202.722 246.278 202.778 245.222 202.333 245.667z"/>
<path style="fill:#ffffff; stroke:none;" d="M219 245L220 246L219 245z"/>
<path style="fill:#000000; stroke:none;" d="M250 245C249.872 250.463 248.049 255.51 248 261C249.921 256.556 251.911 249.598 250 245z"/>
<path style="fill:#ffffff; stroke:none;" d="M289 249L288 251C289.263 250.029 289.392 250.306 289 249M311 249L312 250L311 249z"/>
<path style="fill:#000000; stroke:none;" d="M384 254L384 257L383 255C382.057 258.93 383.619 262.975 383.671 267C383.815 278.072 382.825 288.901 384 300C385.96 294.949 384.267 289.262 384.039 284C383.626 274.466 386.82 263.165 384 254M134 258C137.978 260.3 144.316 259.13 149 260C148.35 258.7 148.853 259 147 259L153 258C148.278 255.326 139.642 258.388 134 258z"/>
<path style="fill:#ffffff; stroke:none;" d="M151 257L152 258L151 257z"/>
<path style="fill:#000000; stroke:none;" d="M244 258C244.644 262.744 242.988 269.363 238 271C239.33 272.753 240.247 273.67 242 275C241.455 273.365 241.635 273.545 240 273C243.166 268.895 247.506 262.841 244 258M219 260C220.532 266.688 213.394 268.203 208 269C209.377 269.911 210.44 270.404 212 271C215.584 267.823 223.701 265.658 219 260M158 263C154.611 265.659 150.356 265.079 147 268L148 269C149.819 267.636 149.031 267.508 151 268L150 266C156.377 266.695 162.495 265.179 169 266C165.651 263.993 161.762 263.906 158 263M330 268C336.598 270.762 343.099 266.739 349 264C345.676 263.515 343.139 265.693 340 266.752C336.735 267.852 333.407 267.972 330 268M231 269C230.719 272.21 230.314 274.791 231 278L228 279C232.054 279.097 231.464 274.13 232 271C233.635 271.545 233.455 271.365 234 273C234.406 271.341 234.309 270.758 234 269L231 269M290 269C290.008 270.872 290.114 271.612 289 273C291.256 274.282 303.607 277.598 301 280C304.723 281.604 308.953 282.645 313 283C306.955 279.708 299.287 277.334 294 273L296 274C294.276 272.944 294.079 272.964 292 273C291.404 271.44 290.911 270.377 290 269M162 271C175.96 277.022 193.49 270.746 208 273C205.793 274.19 203.37 274.618 203 277L200 276C198.047 277.724 196.537 278.345 194 279C194 277.203 193.986 277.479 193 276C192.918 277.897 193.359 279.159 194 281C200.189 278.612 206.385 274.681 213 274C204.969 270.108 198.434 271.896 190 271.996C180.599 272.108 171.343 271.077 162 271M89 273C90.755 278.536 92.9549 286.214 92.8735 292C92.8075 296.686 90.9574 300.203 92 305C93.0354 301.16 94.5934 294.955 94.2623 291C94.0327 288.257 92.631 285.723 92.206 283C91.5907 279.058 91.7098 276.116 89 273M220 278L219 283L213 283C215.052 283.874 216.747 283.953 219 284L219 288C220.152 285.124 220.691 281.012 220 278M49 290C49.7409 292.815 53.9441 298.474 50 299C51.9407 299.951 53.8976 300.439 56 301C53.6941 297.354 51.832 293.221 49 290M1 295C5.72468 298.482 10.2477 301.29 16 299L15 296L24 294C18.0967 292.588 16.0008 297.438 11 298.254C8.22515 298.707 3.88292 295.632 1 295M25 294C31.7852 300.75 40.2708 308.032 36 319L39 320L38 318C41.0541 319.114 43.7482 319.833 47 320C44.4559 318.734 41.4466 318.132 39.5995 315.772C37.2812 312.81 37.5926 308.451 36.4676 305C34.5913 299.245 30.3761 296.152 25 294M77 295C75.6316 302.831 72.8344 312.255 75.7377 320C78.7277 327.976 86.265 333.229 88 342C91.0773 333.061 78.6102 325.785 76.429 318C74.2401 310.187 79.4824 302.455 77 295z"/>
<path style="fill:#ffffff; stroke:none;" d="M14 298L15 299L14 298z"/>
<path style="fill:#000000; stroke:none;" d="M292 303C291.464 310.478 296.725 313.432 298.982 320C302.972 331.607 294.097 343.789 282 343C288.362 346.673 293.197 340.368 299 339C299.169 333.212 301.628 327.9 300.695 322C299.858 316.702 296.282 313.668 293.872 309.171C292.831 307.228 292.835 304.996 292 303M14 305C14.7769 306.554 14.2747 306.15 16 305C14.8168 309.97 15 314.919 15 320C16.8281 315.643 16.7826 308.625 16 304L14 305M94 305C94.5754 311.239 95.2659 316.711 95 323C97.6067 317.576 97.2353 310.087 94 305M29 309C29.4011 314.075 30.2426 318.877 30 324C32.5051 319.603 31.3063 313.337 29 309M220 309C220.385 317.592 220.91 328.689 219 337C222.548 332.311 220.702 323.223 220.863 317.424C220.954 314.155 221.823 311.824 220 309M392 323C391.133 332.567 383.034 338.451 383 348C384.098 345.387 383.993 342.835 384 340C389.439 338.239 394.103 328.404 392 323M305 324C307.467 327.268 311.962 330.844 310 335C312.742 337.742 319.126 340.685 317 346L316 345C317.576 346.36 319.097 347.121 321 348C317.336 340.207 312.85 328.204 305 324M238 335C239.748 333.673 241.769 331.392 244.091 331.237C250.975 330.777 260.056 340.588 259 347C264.121 349.464 269.554 348.703 275 350C277.057 348.418 278.388 348.174 281 348C275.113 345.599 266.603 348.226 260 347C260.852 344.707 261.488 342.893 263 341C261.031 339.937 259.202 339.468 257 339L258 335C255.646 335.077 254.232 334.791 252 334C253.186 332.814 253.528 332.416 254 331C246.84 333.012 243.027 326.592 238 335M282 330C280.46 336.043 274.59 339.12 276 346C277.011 342.458 277.128 340.023 281 339C281.091 335.774 282.59 333.152 283 330L288 330C285.677 329.078 284.419 329.313 282 330z"/>
<path style="fill:#ffffff; stroke:none;" d="M85 333L86 334L85 333z"/>
<path style="fill:#000000; stroke:none;" d="M222 334C227.093 343.411 244.641 342.289 250 334C247.285 335.5 245.072 336.56 242 337C243.506 337.683 244.315 337.826 246 338C237.37 340.551 229.107 339.281 222 334M90 341C90.9836 346.298 90.5816 351.775 91.8472 357C94.406 367.564 99.4538 377.541 102.486 388C103.905 392.895 108.884 400.501 106 405C107.55 411.29 107.036 417.807 108.46 424C111.836 438.687 116.091 453.224 118.957 468C121.733 482.314 122.311 497.111 127 511C127.718 507.532 125.776 504.455 125.195 501C123.853 493.022 122.172 484.974 121 477L124 478C117.421 468.309 117.488 455.122 115.326 444C114.046 437.415 111.176 430.753 112 424C110.805 424.598 111.023 424.466 110 426C108.038 417.757 109.877 409.146 108.478 401.015C107.91 397.713 105.679 395.12 104.704 391.961C101.177 380.525 97.1208 369.362 93.4051 358C91.596 352.468 93.2992 345.829 90 341M33 342C30.2515 345.345 28.1648 346.304 25 343C22.5133 344.388 20.9158 345.878 19 348L21 351C21.7123 349.007 21.8252 347.131 22 345C24.7633 346.299 26.1641 347.553 28 350C30.196 347.602 33.0891 345.324 33 342M381 342C379.55 346.906 380.151 351.926 379.964 356.999C379.667 365.029 379 372.929 379 381C380.69 376.973 379.835 372.321 380.079 368.004C380.555 359.583 382.305 350.359 381 342M194 346C198.262 349.229 204.83 348 210 348C205.139 345.96 199.206 347.239 194 346M35 360C40.6546 360.977 44.2686 361.853 46 368C46.8381 365.577 46.2389 363.537 46 361C42.005 359.754 39.1074 358.831 35 360M51 379C54.3785 372.027 54.5641 364.892 63 362C54.561 359.791 51.2813 372.843 51 379M79 363C79.8881 368.925 82.8568 373.911 83 380C85.249 374.588 81.954 367.671 79 363M27 370C27.4016 377.724 33.527 381.902 35 389C37.2426 384.866 32.7388 381.517 30.5633 378C28.9976 375.469 28.2969 372.628 27 370M220 380C227.336 383.078 236.343 379.903 244 380.054C251.927 380.211 260.282 384.141 268 386C268.403 382.917 271.181 382.714 274 381.833C280.507 379.8 286.675 381.485 293 383C283.83 375.708 273.668 382.81 264 383.647C258.534 384.119 253.408 380.02 248 379.29C239.017 378.077 229.124 380 220 380M83 381C82.9378 386.262 82.1136 390.373 76 389L80 394C80.4794 392.502 80.4001 392.65 80 391C83.9691 388.811 84.7284 385.13 83 381M372 382C371.602 387.045 371.001 391.918 371 397C372.634 393.108 373.54 385.945 372 382M18 384C17.8905 391.172 25.5279 392.192 31 390C24.9706 389.244 21.4411 389.994 18 384M51 387C55.0083 388.634 58.9417 386.928 63 386L61 387C63.2736 387.409 64.7809 386.788 67 386C61.7714 384.179 56.3595 386.755 51 387M192 387C198.869 389.882 207.645 387.249 215 389L214 387C219.803 385.839 227.065 387 233 387C240.365 387 249.03 388.257 256 390C259.062 390.766 262.506 389.623 265 389C268.85 388.037 275.372 388 279 388C283.981 388 290.985 387.591 295 390L294 391C302.627 388.552 311.037 388.024 320 388C312.61 384.892 304.556 388.073 297 388.39C291.997 388.599 287.02 387.04 282 387.005C274.972 386.955 268.003 388.431 261 388.791C252.347 389.235 243.621 386.417 235 386.039C220.654 385.411 206.356 387 192 387z"/>
<path style="fill:#ffffff; stroke:none;" d="M310 387L311 388L310 387z"/>
<path style="fill:#000000; stroke:none;" d="M368 390C366.158 397.771 363.005 403.829 363 412C364.211 409.12 363.903 406.001 364.84 403C366.171 398.732 369.865 394.546 368 390M185 394L181 396C188.933 399.676 187.971 406.267 187 414C190.164 409.299 187.4 403.364 191 399C188.367 397.637 186.775 396.394 185 394M223 394C226.932 396.371 231.57 396.516 236 397.453C245.218 399.403 254.839 401.339 264 398C258.274 396.974 251.108 398.796 245 398.339C237.715 397.793 230.324 394.946 223 394M1 400C6.63998 402.554 13.0931 403.407 19 405.285C28.6727 408.362 37.7386 412.559 48 413C44.2025 411.175 39.9258 411.429 36 409.955C25.179 405.893 12.6887 400.274 1 400M113 406C117.205 409.777 121.243 412.685 127 413C127.651 415.434 128.16 416.283 130 418C126.944 412.075 119.239 408.103 113 406M233 407C237.525 409.435 242.14 407.173 247 407.495C250.046 407.696 252.923 408.811 256 408.96C266.357 409.459 276.657 408.001 287 408C282.113 405.949 277.09 407.853 272 407.742C266.703 407.626 261.276 408.322 256 407.907C252.94 407.666 250.056 406.43 247 406.274C242.35 406.036 237.718 407.256 233 407M355 412C379.936 424.835 406.508 440.36 435 443.816C445.177 445.05 455.991 443.865 466 442C462.205 440.833 457.914 442.246 454 442.715C448.8 443.336 443.229 443.214 438 442.96C427.949 442.471 416.562 438.076 407 435.015C394.775 431.103 383.44 425.184 372 419.525C366.281 416.697 361.548 412.439 355 412M132 415C129.168 425.731 145.078 428.836 153 429C144.443 425.159 134.265 426.161 132 415M353 425C353.192 429.205 354.833 432.889 355.312 437C356.055 443.375 355 450.535 355 457C355 466.441 356.196 476.778 354 486C356.945 482.112 356 476.716 356 472L356 440C362.976 447.144 366.605 457.621 375 463.301C380.162 466.794 386.467 467.846 392 470.504C404.403 476.46 415.195 484.479 427 491.406C436.559 497.015 448.898 502.282 456 511C458.375 510.466 459.625 510.466 462 511C459.626 508.621 456.896 508.1 454 506.447C449.226 503.722 444.681 500.438 440 497.54C425.119 488.328 410.534 478.64 395 470.543C388.192 466.995 379.994 465.839 374.005 460.775C367.773 455.507 360.969 445.325 357.418 438C355.414 433.865 354.988 429.103 353 425M238 427C241.959 428.661 246.74 428 251 428C258.435 428 265.625 428.068 273 429C269.013 426.612 264.532 427 260 427L238 427M339 427C339.199 429.874 338.685 432.203 338 435C336.977 433.466 337.195 433.598 336 433C333.528 435.959 331.265 438.304 330 442C333.849 437.805 340.365 429.605 346 429C343.762 427.48 341.697 427.382 339 427M151 430C153.526 435.401 158.204 439.493 164 441C162.416 439.606 161.291 439.091 161 437C156.711 435.796 154.215 432.957 151 430M338 437L338 443L334 444L335 450C336.865 446.035 340.687 440.936 338 437z"/>
<path style="fill:#ffffff; stroke:none;" d="M113 439L114 440L113 439z"/>
<path style="fill:#000000; stroke:none;" d="M160 443C163.461 444.663 167.185 444.921 171 445C172.696 453.329 183.18 457.46 189.957 461.376C196.105 464.929 199.171 472.129 206 475.181C214.655 479.05 224.947 475.845 234 478C229.27 474.417 221.699 476.213 216 475.961C209.592 475.677 204.813 473.513 200.048 469.245C197.515 466.977 196.346 465.33 196 462C188.688 459.652 182.231 455.668 176.108 451.049C173.87 449.36 172.748 446.58 170.505 445.012C167.743 443.082 163.237 443.139 160 443M475 448C483.979 460.901 492.969 476.615 492 493L495 491C497.5 497.655 501.266 504.092 503 511C505.086 504.43 497.319 494.64 494.418 489C492.5 485.272 492.756 480.964 491.621 477C490.425 472.822 487.906 468.942 486.096 465C482.893 458.027 481.637 452.715 475 448M316 449L315 460L311 459C312.653 460.513 313.894 461.181 316 462L317 461C316.214 456.973 317.537 452.768 316 449z"/>
<path style="fill:#ffffff; stroke:none;" d="M315 460L316 461L315 460z"/>
<path style="fill:#000000; stroke:none;" d="M323 465C320.531 468.964 317.613 474.534 313 476L311 483C314.752 478.408 323.311 471.146 323 465M255 480C260.127 482.171 265.618 481.086 271 480.76C281.912 480.098 292.011 476.867 303 476C295.884 473.223 286.954 477.515 280 479.083C272.174 480.847 263.016 480.017 255 480M99 484C105.59 486.571 112.41 480.675 119 480C113.083 477.715 105.338 483.482 99 484M217 480C220.238 483.888 223.201 483.753 228 484.09C237.288 484.741 244.102 483.01 253 481C250.668 480.015 248.543 480.019 246 480C246.598 481.195 246.466 480.977 248 482C238.01 483.855 226.144 485.03 217 480M288 486L292 484C288.247 492.336 282.013 496.058 273 495C281.552 500.115 290.485 492.021 293 484C290.333 483.862 289.893 484.089 288 486M352 483C351.982 489.483 349.573 493.905 348.299 500C347.564 503.512 348 507.427 348 511C349.365 507.746 348.585 504.412 349.299 501C350.612 494.721 354.776 489.618 352 483M1 503C7.66805 503.962 16.207 501.848 23 501.169C31.7709 500.292 40.3087 498.108 49 497.174C55.9047 496.431 63.1655 496.893 70 495.776C73.1198 495.266 75.9104 493.641 79 492.963C84.2798 491.805 89.632 492 95 492C86.2312 488.32 77.4933 493.388 69 494.776C62.1655 495.893 54.9047 495.431 48 496.174C40.9496 496.932 34.1141 499.119 27 499.831C18.418 500.69 9.21489 500.219 1 503z"/>
</svg>
